<?xml version="1.0" encoding="utf-8"?>
<!-- Generator: Adobe Illustrator 27.5.0, SVG Export Plug-In . SVG Version: 6.00 Build 0)  -->
<svg version="1.1" xmlns="http://www.w3.org/2000/svg" xmlns:xlink="http://www.w3.org/1999/xlink" x="0px" y="0px"
	 viewBox="0 0 3710 3710" style="enable-background:new 0 0 3710 3710;" xml:space="preserve">
<g id="Background">
	<g>
		<g>
			<rect style="fill:#FFFFFF;" width="3710" height="3710"/>
		</g>
	</g>
</g>
<g id="Illustration">
	<g id="Brainstorming">
		<circle style="fill:#F4F7FA;" cx="1855" cy="1855" r="1400"/>
		<g>
			<path style="fill:#BFC6D1;" d="M3002.676,1166.336c41.057,3.457,77.376-29.779,81.12-74.235
				c3.744-44.456-26.504-83.299-67.561-86.757c-2.128-0.179-4.233-0.201-6.331-0.188c-1.957-22.962-5.537-45.453-10.691-67.313
				c1.949-0.798,3.894-1.626,5.811-2.611c37.429-19.234,53.758-67.438,36.471-107.668c-17.286-40.231-61.64-57.251-99.07-38.019
				c-1.957,1.007-3.82,2.136-5.659,3.294c-12.22-18.453-25.752-35.83-40.482-51.985c1.361-1.771,2.701-3.573,3.943-5.495
				c23.771-36.77,15.734-87.028-17.948-112.251c-33.684-25.223-80.262-15.861-104.034,20.909c-1.218,1.885-2.297,3.823-3.348,5.774
				c-19.016-9.177-38.868-16.777-59.423-22.722c0.366-2.239,0.698-4.494,0.892-6.796c3.744-44.458,11.847-94.648-29.26-97.463
				c-95.092-6.512-115.677,40.483-119.421,84.94c-0.194,2.302-0.242,4.58-0.256,6.849c-21.26,2.424-42.104,6.596-62.387,12.462
				c-0.71-2.098-1.449-4.19-2.335-6.252c-17.285-40.229-14.165-67.066-53.454-51.992c-85.677,32.871-99.374,81.415-82.088,121.644
				c0.903,2.102,1.923,4.103,2.969,6.076c-17.225,13.464-33.474,28.334-48.608,44.483c-1.62-1.449-3.268-2.875-5.029-4.195
				c-33.684-25.223-80.262-15.861-104.033,20.913c-23.771,36.772-15.735,87.027,17.949,112.249c1.726,1.294,3.505,2.435,5.292,3.547
				c-8.738,20.692-16.028,42.266-21.8,64.578c-2.065-0.365-4.146-0.696-6.272-0.875c-41.057-3.458-77.377,29.777-81.121,74.235
				c-3.744,44.456,26.505,83.299,67.562,86.757c2.127,0.179,4.233,0.201,6.33,0.188c1.959,22.962,5.538,45.452,10.692,67.313
				c-1.95,0.798-3.894,1.625-5.811,2.609c-37.428,19.236-53.757,67.439-36.472,107.669c17.286,40.231,61.641,57.249,99.07,38.016
				c1.956-1.004,3.821-2.133,5.659-3.292c12.219,18.454,25.752,35.831,40.482,51.987c-1.362,1.771-2.7,3.572-3.943,5.495
				c-23.771,36.77-15.735,87.027,17.949,112.25c33.685,25.223,106.602,13.683,130.373-23.087c1.219-1.885-24.042-1.645-22.991-3.597
				c19.015,9.178,38.868,16.777,59.423,22.722c-0.365,2.239-0.699,4.494-0.893,6.796c-3.744,44.456,26.504,83.299,67.561,86.758
				c41.057,3.457,77.376-29.779,81.121-74.235c0.194-2.304,0.242-4.582,0.256-6.851c21.26-2.423,42.104-6.594,62.386-12.461
				c0.711,2.099,1.451,4.19,2.336,6.252c17.286,40.228,61.641,57.249,99.07,38.016c37.429-19.234,53.758-67.439,36.472-107.667
				c-0.903-2.103-1.922-4.103-2.968-6.077c17.225-13.464,33.473-28.333,48.608-44.483c1.619,1.45,3.269,2.875,5.028,4.193
				c33.684,25.222,80.261,15.863,104.033-20.911c23.771-36.772,15.734-87.027-17.949-112.253c-1.725-1.29-3.504-2.432-5.292-3.544
				c8.737-20.691,16.028-42.264,21.798-64.577C2998.469,1165.825,3000.548,1166.157,3002.676,1166.336z M2580.539,1344.049
				c-149.07-12.554-258.894-153.582-245.299-314.995c13.594-161.413,145.46-282.085,294.53-269.529
				c149.071,12.556,258.895,153.584,245.299,314.997C2861.475,1235.934,2729.61,1356.606,2580.539,1344.049z"/>
			<path style="fill:#BFC6D1;" d="M3005.024,935.233c37.428-19.235,53.757-67.438,36.472-107.669
				c-17.287-40.23-61.642-57.251-99.07-38.017c-1.957,1.005-3.82,2.136-5.659,3.293c-12.22-18.454-25.752-35.83-40.482-51.985
				c1.362-1.771,2.701-3.573,3.943-5.496c23.771-36.769,42.034-109.708,5.941-131.343c-68.504-41.06-104.152,3.233-127.923,40.003
				c-1.218,1.885-2.297,3.823-3.349,5.772c-19.015-9.176-38.867-16.775-59.423-22.72c0.367-2.24,0.7-4.493,0.894-6.796
				c2.038-24.195-6.044-46.675-20.407-62.746c-9.152,69.516-17.776,139.094-25.708,208.75
				c127.936,32.205,217.147,161.833,204.817,308.243c-10.449,124.068-90.802,223.985-195.105,257.915
				c0.24,13.563,0.59,27.157,0.463,40.736c-0.34,36.851-2.73,73.78-5.157,110.676c10.119-2.045,20.126-4.484,29.997-7.339
				c0.71,2.1,1.45,4.192,2.336,6.253c17.286,40.23,55.907,64.689,124.772,32.371c38.095-17.877,28.055-61.793,10.768-102.022
				c-0.903-2.102-1.922-4.103-2.968-6.076c17.224-13.465,33.472-28.334,48.607-44.483c1.62,1.449,3.27,2.875,5.029,4.193
				c33.684,25.223,109.251,11.062,133.022-25.71c23.772-36.772-13.254-82.227-46.938-107.452c-1.725-1.292-3.505-2.433-5.292-3.546
				c8.738-20.69,16.028-42.265,21.799-64.575c2.067,0.365,4.146,0.696,6.273,0.874c41.057,3.46,77.376-29.779,81.121-74.235
				c3.744-44.455-26.504-83.3-67.562-86.757c-2.127-0.179-4.233-0.201-6.331-0.186c-1.957-22.962-5.538-45.453-10.691-67.312
				C3001.162,937.046,3003.107,936.217,3005.024,935.233z"/>
			<path style="fill:#EBEFF2;" d="M3040.977,1155.63c41.057,3.459,77.376-29.777,81.12-74.234
				c3.745-44.457-26.504-83.3-67.562-86.757c-2.126-0.18-4.232-0.201-6.33-0.187c-1.958-22.963-5.537-45.453-10.691-67.314
				c1.948-0.798,3.894-1.626,5.81-2.612c37.429-19.234,53.758-67.437,36.472-107.667c-17.286-40.23-61.641-57.252-99.07-38.018
				c-1.957,1.007-3.82,2.136-5.659,3.294c-12.22-18.453-25.753-35.831-40.483-51.987c1.362-1.769,2.701-3.572,3.944-5.495
				c23.771-36.77,15.734-87.027-17.95-112.25c-33.684-25.224-80.262-15.861-104.033,20.909c-1.217,1.885-2.295,3.824-3.348,5.774
				c-19.016-9.177-38.867-16.776-59.424-22.721c0.365-2.24,0.699-4.494,0.894-6.797c3.744-44.456-26.505-83.299-67.562-86.757
				c-41.057-3.458-77.376,29.777-81.121,74.234c-0.193,2.303-0.241,4.581-0.257,6.85c-21.26,2.424-42.104,6.594-62.385,12.462
				c-0.711-2.099-1.45-4.191-2.335-6.253c-17.286-40.229-61.641-57.25-99.07-38.016c-37.428,19.233-53.757,67.439-36.472,107.667
				c0.903,2.103,1.922,4.103,2.969,6.076c-17.225,13.466-33.473,28.335-48.608,44.483c-1.62-1.449-3.268-2.874-5.029-4.195
				c-33.684-25.223-80.261-15.86-104.032,20.912c-23.772,36.773-15.735,87.027,17.949,112.251c1.726,1.292,3.505,2.434,5.293,3.546
				c-8.738,20.69-16.028,42.265-21.8,64.577c-2.065-0.364-4.146-0.695-6.272-0.874c-41.058-3.459-77.376,29.778-81.121,74.234
				c-3.744,44.457,26.504,83.3,67.562,86.758c2.127,0.18,4.232,0.201,6.33,0.187c1.959,22.963,5.538,45.453,10.691,67.313
				c-1.949,0.797-3.893,1.626-5.81,2.609c-37.429,19.236-53.758,67.438-36.472,107.67c17.286,40.23,61.642,57.249,99.07,38.016
				c1.956-1.005,3.821-2.134,5.66-3.293c12.219,18.454,25.751,35.83,40.482,51.987c-1.362,1.77-2.701,3.573-3.944,5.495
				c-23.771,36.77-15.735,87.026,17.95,112.25c33.684,25.222,80.261,15.861,104.032-20.909c1.219-1.885,2.297-3.824,3.349-5.774
				c19.014,9.177,38.867,16.775,59.422,22.721c-0.365,2.24-0.699,4.494-0.893,6.797c-3.744,44.456,26.504,83.299,67.562,86.757
				c41.057,3.457,77.376-29.778,81.12-74.235c0.195-2.302,0.243-4.581,0.257-6.85c21.26-2.423,42.104-6.594,62.386-12.462
				c0.711,2.099,1.451,4.191,2.335,6.252c17.287,40.229,61.642,57.25,99.07,38.016c37.429-19.233,53.759-67.438,36.472-107.666
				c-0.903-2.105-1.922-4.103-2.969-6.078c17.225-13.464,33.472-28.333,48.607-44.482c1.62,1.449,3.268,2.873,5.029,4.191
				c33.685,25.224,80.262,15.863,104.033-20.91c23.772-36.773,15.736-87.027-17.949-112.252c-1.725-1.29-3.504-2.432-5.292-3.545
				c8.737-20.689,16.028-42.265,21.799-64.575C3036.77,1155.121,3038.849,1155.451,3040.977,1155.63z M2618.84,1333.345
				c-149.069-12.555-258.894-153.583-245.298-314.996c13.594-161.413,145.46-282.084,294.53-269.529
				c149.069,12.555,258.894,153.583,245.298,314.996C2899.776,1225.229,2767.911,1345.9,2618.84,1333.345z"/>
		</g>
		<g>
			<g>
				<g>
					<g>
						<path style="fill:#B2BCCC;" d="M1916.26,1284.253l-747.363,242.039l-47.907-138.197c-13.63-39.316,38.587-81.11,75.914-63.446
							l26.569,26.456c34.557,16.352,73.954,12.201,102.131-10.58l476.59-385.313L1916.26,1284.253z"/>
						<path style="fill:#B2BCCC;" d="M1989.071,1260.673l639.378-207.067l-17.275-129.721
							c-11.747-33.887-76.029-30.758-89.513-1.368l-14.758,32.166c-12.742,27.773-39.352,43.271-69.074,40.062l-561.979-60.674
							L1989.071,1260.673z"/>
					</g>
					<g>
						<path style="fill:#D8DEE8;" d="M1943.559,1281.108l-747.363,242.039l-47.908-138.197
							c-13.629-39.316,24.728-73.784,62.056-56.121l40.428,19.13c34.556,16.352,73.953,12.201,102.13-10.579l476.59-385.313
							L1943.559,1281.108z"/>
						<path style="fill:#D8DEE8;" d="M2016.371,1257.527l639.378-207.067l-41.291-119.112
							c-11.747-33.887-52.012-41.367-65.496-11.977l-14.758,32.166c-12.742,27.774-39.352,43.271-69.074,40.062l-561.979-60.674
							L2016.371,1257.527z"/>
					</g>
					<g>
						<g>
							<polygon style="fill:#B2BCCC;" points="1841.025,2588.832 1202.567,1499.938 564.116,2583.541 558.669,2579.539 
								1202.579,1486.668 1205.301,1491.308 1846.481,2584.844 							"/>
							<g>
								<path style="fill:#D8DEE8;" d="M1865.534,2586.838c0,48.649-296.818,237.285-662.961,237.285
									c-366.143,0-662.961-188.635-662.961-237.285s296.818-88.088,662.961-88.088
									C1568.717,2498.75,1865.534,2538.188,1865.534,2586.838z"/>
								<ellipse style="fill:#E6EBF4;" cx="1202.573" cy="2583.477" rx="662.961" ry="88.088"/>
								<ellipse style="opacity:0.3;fill:#D8DEE8;" cx="1202.573" cy="2575.539" rx="641.18" ry="68.487"/>
							</g>
							<ellipse style="fill:#D8DEE8;" cx="1202.573" cy="1493.303" rx="78.251" ry="87.378"/>
						</g>
						<g>
							<polygon style="fill:#B2BCCC;" points="3174.755,1982.18 2617.375,1045.632 2060.001,1977.629 2055.246,1974.187 
								2617.385,1034.218 2619.762,1038.209 3179.518,1978.75 							"/>
							<g>
								<path style="fill:#D8DEE8;" d="M3196.152,1980.465c0,41.843-259.125,204.087-578.772,204.087
									s-578.772-162.244-578.772-204.087c0-41.843,259.125-75.763,578.772-75.763S3196.152,1938.622,3196.152,1980.465z"/>
								<ellipse style="fill:#E6EBF4;" cx="2617.38" cy="1977.153" rx="578.772" ry="75.763"/>
								<ellipse style="opacity:0.3;fill:#D8DEE8;" cx="2617.38" cy="1972.597" rx="559.757" ry="60.667"/>
							</g>
							<ellipse style="fill:#D8DEE8;" cx="2617.38" cy="1039.925" rx="68.314" ry="75.153"/>
						</g>
					</g>
					<path style="fill:#B2BCCC;" d="M1941.338,492.802l-122.249-5.661c-27.755-1.285-50.374,24.694-50.374,58.033v101.434
						l32.634,471.12c2.157,31.146,23.895,54.59,49.864,53.928l58.61-1.494c25.511-0.65,46.654-24.803,48.742-55.534l31.357-461.508
						v-99.096C1989.921,521.455,1968.232,494.047,1941.338,492.802z"/>
					<path style="fill:#D8DEE8;" d="M1967.095,492.802l-122.249-5.661c-27.756-1.285-50.374,24.694-50.374,58.033v101.434
						l32.634,471.12c2.158,31.146,23.895,54.59,49.864,53.928l58.61-1.494c25.511-0.65,46.654-24.803,48.742-55.534l31.357-461.508
						v-99.096C2015.678,521.455,1993.988,494.047,1967.095,492.802z"/>
					<g style="opacity:0.3;">
						<path style="fill:#D8DEE8;" d="M1941.576,947.725c-37.712-147.657-105.66-209.622-116.459-351.684
							c-2.917-38.382-0.977-74.102,3.54-106.394c-19.839,7.176-34.187,28.995-34.187,55.527v101.434l32.634,471.121
							c2.158,31.145,23.896,54.589,49.863,53.928l58.611-1.494c9.946-0.254,19.207-4.115,26.956-10.51
							C1966.46,1069.942,1954.707,999.137,1941.576,947.725z"/>
					</g>
				</g>
				<g>
					<defs>
						<path id="SVGID_1_" d="M3045.956,2002.111c-86.187,4.54-190.605,31.374-285.095,31.396
							c-95.396,0.023-172.843-17.869-259.783-22.448l-13.903-548.431h544.878L3045.956,2002.111z"/>
					</defs>
					<clipPath id="SVGID_00000155837746663244051750000001831491869993519499_">
						<use xlink:href="#SVGID_1_"  style="overflow:visible;"/>
					</clipPath>
					<g style="clip-path:url(#SVGID_00000155837746663244051750000001831491869993519499_);">
						<path style="fill:#FFFFFF;" d="M2943.116,1676.031c-1.835-99.777-88.271-179.099-193.058-177.171
							c-104.788,1.928-188.247,84.375-186.411,184.152c1.114,60.552,33.388,113.568,82.012,145.464
							c20.628,13.532,33.405,36.225,33.859,60.892l0.254,13.825c0.552,30.039,25.352,53.943,55.391,53.39l46.614-0.857
							c30.039-0.553,53.943-25.352,53.39-55.391l-0.254-13.825c-0.454-24.667,11.48-47.815,31.597-62.096
							C2913.927,1790.75,2944.23,1736.583,2943.116,1676.031z"/>
						
							<linearGradient id="SVGID_00000174570291533160224600000014641477038987184031_" gradientUnits="userSpaceOnUse" x1="2688.6406" y1="2064.2114" x2="2692.011" y2="2037.2483" gradientTransform="matrix(0.9998 -0.0184 0.0184 0.9998 30.4971 54.0667)">
							<stop  offset="0.0036" style="stop-color:#26264F"/>
							<stop  offset="1" style="stop-color:#444B8C"/>
						</linearGradient>
						<path style="opacity:0.3;fill:url(#SVGID_00000174570291533160224600000014641477038987184031_);" d="M2802.04,2035.93
							c0.226,12.306-18.434,22.629-41.678,23.057c-23.245,0.427-42.272-9.202-42.498-21.509
							c-0.226-12.307,18.434-22.63,41.678-23.057C2782.787,2013.994,2801.814,2023.624,2802.04,2035.93z"/>
						<path style="fill:#BFC6D1;" d="M2703.3,1997.927l0.419,22.755c0.142,7.699,4.653,14.672,11.663,17.859
							c9.732,4.423,25.865,9.177,49.165,8.151c18.902-0.833,31.177-4.148,38.958-7.536c7.516-3.274,12.233-10.853,12.082-19.05
							l-0.231-12.59L2703.3,1997.927z"/>
						
							<linearGradient id="SVGID_00000102517831247338957020000004237571676008526753_" gradientUnits="userSpaceOnUse" x1="2636.6626" y1="2010.8866" x2="2748.5249" y2="2010.8866" gradientTransform="matrix(0.9998 -0.0184 0.0184 0.9998 30.4971 54.0667)">
							<stop  offset="0.0036" style="stop-color:#26264F"/>
							<stop  offset="1" style="stop-color:#444B8C"/>
						</linearGradient>
						<path style="opacity:0.3;fill:url(#SVGID_00000102517831247338957020000004237571676008526753_);" d="M2703.666,2017.859
							c1.735,1.626,3.735,2.995,5.972,4.012c10.918,4.963,82.023,15.191,99.005,8.451c2.206-0.875,4.183-2.028,5.908-3.407
							c0.709-2.163,1.078-4.457,1.035-6.809l-0.231-12.59l-112.054-9.588L2703.666,2017.859z"/>
						<path style="fill:#BFC6D1;" d="M2707.98,1982.354c-6.311-0.54-11.702,4.501-11.585,10.834l0.012,0.645
							c0.159,8.637,5.22,16.461,13.084,20.035c10.918,4.962,82.023,15.191,99.005,8.451c8.549-3.393,13.748-10.882,13.579-20.078
							l-0.01-0.519c-0.101-5.468-4.316-9.975-9.764-10.441L2707.98,1982.354z"/>
						
							<linearGradient id="SVGID_00000176721450758524448130000004609361956672412090_" gradientUnits="userSpaceOnUse" x1="2631.6511" y1="1992.0336" x2="2753.4812" y2="1992.0336" gradientTransform="matrix(0.9998 -0.0184 0.0184 0.9998 30.4971 54.0667)">
							<stop  offset="0.0036" style="stop-color:#26264F"/>
							<stop  offset="1" style="stop-color:#444B8C"/>
						</linearGradient>
						<path style="opacity:0.3;fill:url(#SVGID_00000176721450758524448130000004609361956672412090_);" d="M2812.3,1991.28
							l-104.32-8.927c-4.116-0.352-7.829,1.677-9.89,4.883c2.182,4.89,6.067,8.943,11.117,11.238
							c10.918,4.962,85.069,16.639,99.029,9.745c5.434-2.684,9.652-7.124,11.858-12.466
							C2818.332,1993.268,2815.538,1991.557,2812.3,1991.28z"/>
						<path style="fill:#BFC6D1;" d="M2703.228,1945.561c-4.256,0.078-7.643,3.592-7.565,7.849l0.328,17.822
							c0.159,8.637,5.22,16.46,13.084,20.035c10.918,4.963,85.069,16.639,99.029,9.745c8.247-4.073,13.724-12.175,13.555-21.371
							l-0.525-28.538c-0.078-4.256-3.592-7.643-7.849-7.565L2703.228,1945.561z"/>
						
							<linearGradient id="SVGID_00000047040439269808391980000009015779879121396369_" gradientUnits="userSpaceOnUse" x1="2689.4775" y1="1960.5547" x2="2701.8357" y2="1902.6971" gradientTransform="matrix(0.9998 -0.0184 0.0184 0.9998 30.4971 54.0667)">
							<stop  offset="0.0036" style="stop-color:#26264F"/>
							<stop  offset="1" style="stop-color:#444B8C"/>
						</linearGradient>
						<path style="opacity:0.3;fill:url(#SVGID_00000047040439269808391980000009015779879121396369_);" d="M2819.542,1948.972
							c0.147,7.989-27.127,14.969-60.917,15.591c-33.791,0.622-61.303-5.351-61.45-13.34c-0.147-7.989,27.127-14.969,60.917-15.591
							S2819.395,1940.983,2819.542,1948.972z"/>
						<path style="opacity:0.5;fill:#F4F7FA;" d="M2802.918,1937.867c0.107,5.846-19.849,10.953-44.575,11.408
							c-24.725,0.455-44.857-3.915-44.964-9.761c-0.108-5.846,19.849-10.953,44.575-11.408
							C2782.679,1927.651,2802.811,1932.021,2802.918,1937.867z"/>
						<path style="fill:#D8DEE8;" d="M2759.446,1821.958c2.784-69.708,119.872-88.164,118.226-150.341
							c-1.014-38.294-48.185-65.88-58.25-71.393c-74.169-40.629-163.618,9.51-182.907-24.457
							c-4.802-8.457-2.796-17.796-1.653-23.114c1.728-8.038,5.835-15.571,12.006-22.505c-51.19,33.211-84.386,89.543-83.221,152.863
							c1.114,60.552,33.388,113.569,82.012,145.464c20.629,13.532,33.405,36.226,33.859,60.892l0.254,13.825
							c0.552,30.039,25.352,53.943,55.391,53.39l46.614-0.857c30.039-0.553,53.943-25.352,53.39-55.391l-0.203-11.054
							c-6.325,5.035-13.631,8.599-21.712,8.682C2785.212,1898.248,2758.061,1856.646,2759.446,1821.958z"/>
						
							<ellipse transform="matrix(0.9998 -0.0184 0.0184 0.9998 -30.5386 50.9608)" style="opacity:0.8;fill:#F4F7FA;" cx="2756.545" cy="1686.509" rx="163.298" ry="157.483"/>
						<g>
							<path style="fill:#F4F7FA;" d="M2746.601,1945.374c-1.282,0.024-2.413-0.908-2.604-2.21l-37.647-255.524
								c-0.208-1.414,0.769-2.729,2.183-2.937c1.416-0.217,2.729,0.769,2.937,2.183l37.647,255.524
								c0.208,1.414-0.769,2.729-2.183,2.937C2746.822,1945.363,2746.711,1945.372,2746.601,1945.374z"/>
							<path style="fill:#F4F7FA;" d="M2767.058,1944.998c-0.11,0.002-0.221-0.002-0.333-0.016c-1.421-0.156-2.446-1.434-2.29-2.854
								l28.224-256.736c0.156-1.421,1.433-2.455,2.855-2.289c1.42,0.156,2.446,1.434,2.29,2.854l-28.224,256.736
								C2769.435,1944.001,2768.34,1944.974,2767.058,1944.998z"/>
							<path style="fill:#F4F7FA;" d="M2789.124,1685.91c-0.841,0.016-1.673-0.379-2.184-1.124l-9.344-13.622
								c-0.096-0.14-0.242-0.219-0.373-0.201c-0.225,0.009-0.318,0.171-0.348,0.224l-5.816,10.162
								c-0.964,1.683-2.688,2.739-4.614,2.822c-1.913,0.097-3.739-0.819-4.848-2.417l-8.468-12.203
								c-0.092-0.132-0.213-0.2-0.36-0.198c-0.174,0.036-0.256,0.067-0.341,0.195l-7.047,10.597
								c-1.017,1.531-2.715,2.467-4.541,2.505c0,0-0.008,0-0.011,0c-1.825,0.034-3.559-0.834-4.64-2.325l-10.711-14.759
								c-0.096-0.133-0.23-0.178-0.372-0.189c-0.149,0.009-0.264,0.087-0.344,0.23l-9.223,16.619c-0.693,1.249-2.27,1.7-3.518,1.006
								c-1.25-0.694-1.7-2.269-1.007-3.519l9.223-16.619c0.938-1.689,2.641-2.767,4.556-2.883c1.899-0.132,3.737,0.75,4.873,2.315
								l10.711,14.759c0.093,0.127,0.213,0.192,0.356,0.189h0c0.14-0.004,0.254-0.069,0.339-0.196l7.047-10.597
								c1.031-1.549,2.759-2.492,4.6-2.504c1.854-0.018,3.597,0.888,4.663,2.424l8.467,12.202c0.095,0.137,0.236,0.251,0.373,0.197
								c0.224-0.009,0.316-0.17,0.346-0.223l5.816-10.162c0.968-1.69,2.699-2.745,4.63-2.824c1.912-0.078,3.747,0.836,4.85,2.445
								l9.344,13.623c0.808,1.178,0.508,2.788-0.67,3.597C2790.104,1685.754,2789.613,1685.901,2789.124,1685.91z"/>
						</g>
					</g>
				</g>
			</g>
			<g>
				<defs>
					<path id="SVGID_00000181768897678984787890000000820436466146849168_" d="M480.589,778.09
						c9.587,0,1422.13,25.566,1422.13,25.566l-6.177,1766.908c0,0-149.178,77.007-684.252,77.007
						c-196.016,0-512.625-13.924-750.661-68.483L480.589,778.09z"/>
				</defs>
				<clipPath id="SVGID_00000114062164784851754530000016959304417198934445_">
					<use xlink:href="#SVGID_00000181768897678984787890000000820436466146849168_"  style="overflow:visible;"/>
				</clipPath>
				<g style="clip-path:url(#SVGID_00000114062164784851754530000016959304417198934445_);">
					<path style="opacity:0.75;fill:#F4F7FA;" d="M1843.999,1447.311c0-347.16-295.563-628.59-660.158-628.59
						c-364.595,0-660.158,281.43-660.158,628.59c0,210.683,108.863,397.15,275.946,511.202
						c70.884,48.386,113.872,128.136,113.872,213.96v48.103c0,104.518,84.728,189.245,189.246,189.245h162.188
						c104.518,0,189.245-84.728,189.245-189.245v-48.103c0-85.824,42.989-165.574,113.872-213.96
						C1735.136,1844.46,1843.999,1657.994,1843.999,1447.311z"/>
					
						<linearGradient id="SVGID_00000174601351400027815170000015900993897570400418_" gradientUnits="userSpaceOnUse" x1="1170.0898" y1="2800.0938" x2="1181.8143" y2="2706.2976">
						<stop  offset="0.0036" style="stop-color:#26264F"/>
						<stop  offset="1" style="stop-color:#444B8C"/>
					</linearGradient>
					
						<ellipse style="fill:url(#SVGID_00000174601351400027815170000015900993897570400418_);" cx="1183.841" cy="2690.086" rx="146.441" ry="77.53"/>
					
						<linearGradient id="SVGID_00000077312868334984323560000000117940915216081082_" gradientUnits="userSpaceOnUse" x1="1121.8699" y1="2714.6064" x2="1239.1152" y2="2503.5647">
						<stop  offset="0.0036" style="stop-color:#26264F"/>
						<stop  offset="1" style="stop-color:#444B8C"/>
					</linearGradient>
					<path style="fill:url(#SVGID_00000077312868334984323560000000117940915216081082_);" d="M989.274,2551.586v79.175
						c0,26.787,15.244,51.331,39.422,62.862c33.567,16.008,89.375,33.575,170.482,31.497c65.799-1.686,108.706-12.432,135.984-23.72
						c26.353-10.906,43.244-36.965,43.244-65.486v-43.807L989.274,2551.586z"/>
					
						<linearGradient id="SVGID_00000137838958934797752740000005251440486526886280_" gradientUnits="userSpaceOnUse" x1="989.2744" y1="2614.594" x2="1378.4071" y2="2614.594">
						<stop  offset="0.0036" style="stop-color:#26264F"/>
						<stop  offset="1" style="stop-color:#444B8C"/>
					</linearGradient>
					<path style="opacity:0.3;fill:url(#SVGID_00000137838958934797752740000005251440486526886280_);" d="M989.274,2620.936
						c5.93,5.765,12.8,10.657,20.514,14.335c37.657,17.959,284.319,58.085,343.818,35.729c7.727-2.902,14.679-6.787,20.767-11.472
						c2.603-7.477,4.034-15.435,4.034-23.615v-43.807l-389.133-40.52V2620.936z"/>
					
						<linearGradient id="SVGID_00000063626216062674903410000008457069519537117109_" gradientUnits="userSpaceOnUse" x1="1133.0306" y1="2656.9368" x2="1248.8107" y2="2434.1704">
						<stop  offset="0.0036" style="stop-color:#26264F"/>
						<stop  offset="1" style="stop-color:#444B8C"/>
					</linearGradient>
					<path style="fill:url(#SVGID_00000063626216062674903410000008457069519537117109_);" d="M1006.55,2497.717
						c-21.916-2.282-40.989,14.907-40.989,36.942v2.244c0,30.052,17.102,57.587,44.227,70.523
						c37.657,17.959,284.319,58.085,343.818,35.729c29.952-11.254,48.514-36.969,48.514-68.966v-1.806
						c0-19.024-14.374-34.972-33.295-36.942L1006.55,2497.717z"/>
					
						<linearGradient id="SVGID_00000050627094172110474060000004115241581507610275_" gradientUnits="userSpaceOnUse" x1="971.8399" y1="2549.0103" x2="1395.6486" y2="2549.0103">
						<stop  offset="0.0036" style="stop-color:#26264F"/>
						<stop  offset="1" style="stop-color:#444B8C"/>
					</linearGradient>
					<path style="opacity:0.3;fill:url(#SVGID_00000050627094172110474060000004115241581507610275_);" d="M1368.825,2535.441
						l-362.275-37.724c-14.293-1.489-27.337,5.332-34.71,16.35c7.277,17.149,20.529,31.492,37.948,39.799
						c37.657,17.958,294.824,63.317,343.818,40.231c19.071-8.989,34.028-24.159,42.043-42.602
						C1389.678,2542.741,1380.07,2536.612,1368.825,2535.441z"/>
					
						<linearGradient id="SVGID_00000083080502944064840510000010306714677172793225_" gradientUnits="userSpaceOnUse" x1="965.5613" y1="2472.4351" x2="1402.1202" y2="2472.4351">
						<stop  offset="0.0036" style="stop-color:#26264F"/>
						<stop  offset="1" style="stop-color:#444B8C"/>
					</linearGradient>
					<path style="fill:url(#SVGID_00000083080502944064840510000010306714677172793225_);" d="M992.376,2369.442
						c-14.81,0-26.815,12.005-26.815,26.815v62.01c0,30.051,17.102,57.586,44.227,70.522
						c37.657,17.959,294.824,63.317,343.818,40.23c28.944-13.64,48.514-41.47,48.514-73.467v-99.295
						c0-14.81-12.005-26.815-26.815-26.815H992.376z"/>
					
						<linearGradient id="SVGID_00000049903948063328891090000002176802827689689758_" gradientUnits="userSpaceOnUse" x1="1172.9989" y1="2439.5059" x2="1215.9889" y2="2238.2349">
						<stop  offset="0.0036" style="stop-color:#26264F"/>
						<stop  offset="1" style="stop-color:#444B8C"/>
					</linearGradient>
					
						<ellipse style="fill:url(#SVGID_00000049903948063328891090000002176802827689689758_);" cx="1183.841" cy="2388.746" rx="212.88" ry="50.331"/>
					
						<linearGradient id="SVGID_00000018915823063064713490000003330065969274517427_" gradientUnits="userSpaceOnUse" x1="1090.4409" y1="1316.4396" x2="1943.355" y2="2670.5505">
						<stop  offset="0" style="stop-color:#FCB148"/>
						<stop  offset="0.0521" style="stop-color:#FDBA46"/>
						<stop  offset="0.1424" style="stop-color:#FFC244"/>
						<stop  offset="0.3183" style="stop-color:#FFC444"/>
						<stop  offset="0.4849" style="stop-color:#FDB946"/>
						<stop  offset="0.7754" style="stop-color:#F99C4D"/>
						<stop  offset="0.8658" style="stop-color:#F8924F"/>
						<stop  offset="1" style="stop-color:#F8924F"/>
					</linearGradient>
					<path style="fill:url(#SVGID_00000018915823063064713490000003330065969274517427_);" d="M1843.999,1447.311
						c0-347.16-295.563-628.59-660.158-628.59c-364.595,0-660.158,281.43-660.158,628.59c0,210.683,108.863,397.15,275.946,511.202
						c70.884,48.386,113.872,128.136,113.872,213.96v48.103c0,104.518,84.728,189.245,189.246,189.245h162.188
						c104.518,0,189.245-84.728,189.245-189.245v-48.103c0-85.824,42.989-165.574,113.872-213.96
						C1735.136,1844.46,1843.999,1657.994,1843.999,1447.311z"/>
					<ellipse style="opacity:0.5;fill:#F4F7FA;" cx="1183.841" cy="2349.06" rx="155.769" ry="36.828"/>
					<g>
						
							<linearGradient id="SVGID_00000129164629731471343810000007093666264194231703_" gradientUnits="userSpaceOnUse" x1="934.6241" y1="2359.0891" x2="1108.5382" y2="1851.0264">
							<stop  offset="0.494" style="stop-color:#EBEFF2"/>
							<stop  offset="1" style="stop-color:#FFFFFF"/>
						</linearGradient>
						<path style="fill:url(#SVGID_00000129164629731471343810000007093666264194231703_);" d="M1143.248,2371.566
							c-4.461,0-8.333-3.314-8.918-7.855l-114.594-891.171c-0.633-4.931,2.85-9.441,7.782-10.074
							c4.941-0.664,9.441,2.848,10.076,7.779l114.594,891.171c0.633,4.932-2.851,9.442-7.782,10.074
							C1144.017,2371.544,1143.631,2371.566,1143.248,2371.566z"/>
						
							<linearGradient id="SVGID_00000026124931846009273910000010244525566674980025_" gradientUnits="userSpaceOnUse" x1="1100.891" y1="2416.0032" x2="1274.8052" y2="1907.9402">
							<stop  offset="0.494" style="stop-color:#EBEFF2"/>
							<stop  offset="1" style="stop-color:#FFFFFF"/>
						</linearGradient>
						<path style="fill:url(#SVGID_00000026124931846009273910000010244525566674980025_);" d="M1214.425,2371.566
							c-0.382,0-0.769-0.022-1.158-0.075c-4.931-0.633-8.415-5.143-7.782-10.074l114.596-891.171
							c0.635-4.931,5.14-8.447,10.077-7.779c4.931,0.633,8.415,5.143,7.782,10.074l-114.596,891.171
							C1222.758,2368.252,1218.886,2371.566,1214.425,2371.566z"/>
						
							<linearGradient id="SVGID_00000075160933087531975300000014694543371507041673_" gradientUnits="userSpaceOnUse" x1="874.0624" y1="2338.3591" x2="1047.9767" y2="1830.296">
							<stop  offset="0.494" style="stop-color:#EBEFF2"/>
							<stop  offset="1" style="stop-color:#FFFFFF"/>
						</linearGradient>
						<path style="fill:url(#SVGID_00000075160933087531975300000014694543371507041673_);" d="M1307.752,1471.819
							c-2.925,0-5.796-1.424-7.525-4.048l-31.627-47.979c-0.325-0.493-0.826-0.779-1.284-0.721
							c-0.784,0.018-1.116,0.576-1.224,0.756l-20.88,34.974c-3.461,5.793-9.527,9.353-16.228,9.52
							c-6.659,0.216-12.953-3.09-16.708-8.716l-28.671-42.987c-0.312-0.466-0.73-0.708-1.239-0.712
							c-0.609,0.114-0.894,0.216-1.2,0.655l-25.188,36.407c-3.637,5.261-9.601,8.408-15.955,8.422c-0.013,0-0.026,0-0.04,0
							c-6.351,0-12.327-3.129-15.99-8.382l-36.312-52.019c-0.328-0.47-0.789-0.633-1.281-0.681
							c-0.519,0.022-0.925,0.286-1.211,0.778l-33.144,57.214c-2.49,4.299-8.002,5.767-12.301,3.275
							c-4.303-2.493-5.769-8-3.277-12.303l33.143-57.215c3.371-5.815,9.364-9.454,16.032-9.736
							c6.615-0.338,12.951,2.848,16.801,8.365l36.31,52.019c0.315,0.448,0.728,0.681,1.227,0.681h0.002
							c0.488-0.004,0.888-0.224,1.191-0.659l25.188-36.407c3.686-5.323,9.754-8.492,16.158-8.417
							c6.45,0.057,12.456,3.318,16.065,8.729l28.669,42.982c0.323,0.483,0.807,0.888,1.283,0.708
							c0.781-0.018,1.11-0.572,1.218-0.752l20.88-34.974c3.474-5.815,9.562-9.376,16.285-9.525
							c6.655-0.149,12.98,3.147,16.714,8.813l31.627,47.98c2.736,4.149,1.589,9.731-2.563,12.469
							C1311.172,1471.34,1309.453,1471.819,1307.752,1471.819z"/>
					</g>
					
						<linearGradient id="SVGID_00000061453724192847953970000001987723621436056198_" gradientUnits="userSpaceOnUse" x1="1120.3716" y1="1011.2114" x2="950.3655" y2="2412.2925">
						<stop  offset="0" style="stop-color:#FCB148"/>
						<stop  offset="0.0521" style="stop-color:#FDBA46"/>
						<stop  offset="0.1424" style="stop-color:#FFC244"/>
						<stop  offset="0.3183" style="stop-color:#FFC444"/>
						<stop  offset="0.4849" style="stop-color:#FDB946"/>
						<stop  offset="0.7754" style="stop-color:#F99C4D"/>
						<stop  offset="0.8658" style="stop-color:#F8924F"/>
						<stop  offset="1" style="stop-color:#F8924F"/>
					</linearGradient>
					<path style="opacity:0.3;fill:url(#SVGID_00000061453724192847953970000001987723621436056198_);" d="M1195.822,1943.122
						c14.142-242.279,422.581-298.98,420.83-515.349c-1.078-133.261-163.381-232.227-198.038-252.048
						c-255.376-146.061-569.706,22.607-634.622-96.769c-16.163-29.721-8.585-62.076-4.269-80.501
						c6.523-27.847,21.291-53.785,43.199-77.508c-180.175,112.24-299.24,306.048-299.24,526.364
						c0,210.683,108.863,397.151,275.946,511.202c70.885,48.387,113.872,128.137,113.872,213.96v48.103
						c0,104.518,84.729,189.245,189.246,189.245h162.188c104.517,0,189.245-84.727,189.245-189.245v-38.46
						c-22.323,17.107-47.96,29.038-76.074,28.807C1280.56,2210.122,1188.783,2063.687,1195.822,1943.122z"/>
					<ellipse style="opacity:0.44;fill:#F4F7FA;" cx="1194.4" cy="1471.819" rx="568.079" ry="547.85"/>
				</g>
			</g>
		</g>
		<g>
			<g>
				
					<linearGradient id="SVGID_00000033331389206383765640000013474110493295926420_" gradientUnits="userSpaceOnUse" x1="2333.0444" y1="1912.2095" x2="2197.8723" y2="1728.3267">
					<stop  offset="0" style="stop-color:#311944"/>
					<stop  offset="1" style="stop-color:#893976"/>
				</linearGradient>
				<path style="fill:url(#SVGID_00000033331389206383765640000013474110493295926420_);" d="M2276.855,1857.635l-7.422-13.965
					c0,0-6.828-1.408-9.924-6.288c-3.096-4.88-3.096-4.88-3.096-4.88s-1.549-5.126,4.071-10.688c1.27-1.257,1.927-3.012,1.671-4.78
					c-0.771-5.31-2.337-16.176-2.646-18.955c-0.205-1.838,0.545-4.03,1.356-5.777c0.552-1.19,2.274-1.068,2.617,0.198l5.951,21.895
					c0,0,4.768-1.202,6.406,2.807c0,0,4.122,2.459,4.739,6.745c0.618,4.286-0.008,14.645-0.008,14.645l6.532,14.734
					L2276.855,1857.635z"/>
				
					<linearGradient id="SVGID_00000163764447614410198150000003040185020060720797_" gradientUnits="userSpaceOnUse" x1="1994.6774" y1="2552.9729" x2="2256.1448" y2="1948.8239">
					<stop  offset="0" style="stop-color:#AA80F9"/>
					<stop  offset="0.9964" style="stop-color:#6165D7"/>
				</linearGradient>
				<path style="fill:url(#SVGID_00000163764447614410198150000003040185020060720797_);" d="M2267.096,1855.316
					c4.071,9.447,26.778,64.464,0.576,115.535c-29.219,56.951-107.844,86.747-186.513,61.05
					c-0.616,10.178-7.086,138.969,56.163,169.716c67.918,33.016,195.773-56.859,216.648-169.716
					c17.861-96.567-51.019-174.746-62.177-187.026C2283.56,1848.355,2275.328,1851.836,2267.096,1855.316z"/>
				
					<linearGradient id="SVGID_00000053530530042633321200000008937504886538163857_" gradientUnits="userSpaceOnUse" x1="662.9337" y1="3001.1667" x2="715.2061" y2="3001.1667" gradientTransform="matrix(-0.996 0.0897 0.0897 0.996 2456.5469 -160.4537)">
					<stop  offset="0" style="stop-color:#444B8C"/>
					<stop  offset="0.9964" style="stop-color:#26264F"/>
				</linearGradient>
				<path style="fill:url(#SVGID_00000053530530042633321200000008937504886538163857_);" d="M2016.595,2880.44
					c-2.712,2.493-2.883,8.317-2.995,12.124c-0.051,1.7-0.076,2.551,0.15,3.137c1.644,4.273,10.122,4.216,23.456,4.762
					c21.071,0.863,27.403,2.132,28.852-1.084c1.357-3.014-2.651-7.57-3.101-8.071c-2.423-2.697-5.248-3.559-10.694-4.991
					c-10.078-2.649-16.862-4.023-18.916-4.439C2020.521,2879.277,2018.376,2878.803,2016.595,2880.44z"/>
				
					<linearGradient id="SVGID_00000142176473756177378210000011988603193635960248_" gradientUnits="userSpaceOnUse" x1="209.795" y1="2943.4712" x2="232.7287" y2="2896.0037" gradientTransform="matrix(-0.9976 0.0694 0.0694 0.9976 2040.621 -60.6691)">
					<stop  offset="0" style="stop-color:#311944"/>
					<stop  offset="1" style="stop-color:#893976"/>
				</linearGradient>
				<path style="fill:url(#SVGID_00000142176473756177378210000011988603193635960248_);" d="M2031.374,2859.429l0.822,23.984
					c-0.657,1.122-7.937,4.2-13.415,0.934l-4.134-23.754L2031.374,2859.429z"/>
				
					<linearGradient id="SVGID_00000093138758992569546600000001698263567839754387_" gradientUnits="userSpaceOnUse" x1="387.8489" y1="3077.9751" x2="443.3845" y2="3077.9751" gradientTransform="matrix(-0.977 0.2133 0.2133 0.977 1968.0525 -210.6557)">
					<stop  offset="0" style="stop-color:#444B8C"/>
					<stop  offset="0.9964" style="stop-color:#26264F"/>
				</linearGradient>
				<path style="fill:url(#SVGID_00000093138758992569546600000001698263567839754387_);" d="M2194.087,2877.124
					c-3.623,3.596-4.774,10.511-1.982,14.097c2.744,3.526,7.276,1.234,19.727,2.271c13.336,1.113,16.656,4.454,25.867,2.434
					c3.721-0.818,10.33-2.931,10.347-5.556c0.012-1.846-3.235-2.973-14.051-7.251c-15.353-6.072-15.269-6.354-18.56-7.081
					C2207.171,2874.212,2198.872,2872.377,2194.087,2877.124z"/>
				
					<linearGradient id="SVGID_00000119823883092914446080000002466704672703114890_" gradientUnits="userSpaceOnUse" x1="203.0544" y1="3017.1758" x2="226.4737" y2="2968.7034" gradientTransform="matrix(-0.9894 0.1453 0.1453 0.9894 1974.5804 -128.6684)">
					<stop  offset="0" style="stop-color:#311944"/>
					<stop  offset="1" style="stop-color:#893976"/>
				</linearGradient>
				<path style="fill:url(#SVGID_00000119823883092914446080000002466704672703114890_);" d="M2203.809,2855.795l5.51,22.645
					c-0.57,1.168-7.594,4.792-13.305,1.954l-8.795-22.163L2203.809,2855.795z"/>
				
					<linearGradient id="SVGID_00000057860149554068292770000011506143931771119239_" gradientUnits="userSpaceOnUse" x1="2615.9048" y1="2671.6235" x2="2467.7803" y2="2337.7158" gradientTransform="matrix(0.9986 0.0533 -0.0533 0.9986 -237.5799 -19.3005)">
					<stop  offset="0" style="stop-color:#311944"/>
					<stop  offset="1" style="stop-color:#893976"/>
				</linearGradient>
				<path style="fill:url(#SVGID_00000057860149554068292770000011506143931771119239_);" d="M2170.345,2364.509
					c-3.04,74.951-2.426,159.439,4.952,251.588c7.291,91.076,19.914,173.691,34.605,246.529c-8.671,1.844-17.342,3.687-26.013,5.53
					c-20.607-21.379-46.265-54.673-57.064-100.363c-6.702-28.357-3.205-42.559-6.568-77.178
					c-5.355-55.121-20.586-84.663-35.555-129.682c-13.452-40.453-28.748-99.585-34.464-177.839
					C2090.274,2376.899,2130.31,2370.704,2170.345,2364.509z"/>
				
					<linearGradient id="SVGID_00000088837944256298617810000007868411791285193895_" gradientUnits="userSpaceOnUse" x1="2592.9341" y1="2681.8127" x2="2444.8098" y2="2347.9055" gradientTransform="matrix(0.9986 0.0533 -0.0533 0.9986 -237.5799 -19.3005)">
					<stop  offset="0" style="stop-color:#311944"/>
					<stop  offset="1" style="stop-color:#893976"/>
				</linearGradient>
				<path style="opacity:0.3;fill:url(#SVGID_00000088837944256298617810000007868411791285193895_);" d="M2158.369,2714.786
					c-9.548-37.812-27.942-47.81-28.597-83.501c-0.463-25.246,8.609-27.31,8.007-51.474c-0.913-36.653-22.385-55.871-33.172-78.927
					c-11.393-24.35-15.758-63.461,14.946-128.516c-23.105,3.575-46.209,7.151-69.315,10.726
					c5.716,78.254,21.012,137.386,34.464,177.839c14.969,45.019,30.201,74.561,35.555,129.682
					c3.363,34.619-0.134,48.821,6.568,77.177c10.799,45.69,36.457,78.983,57.064,100.364c2.206-0.469,4.411-0.937,6.616-1.406
					c-22.277-26.59-30.137-50.337-32.137-69.605C2155.116,2765.796,2167.995,2752.911,2158.369,2714.786z"/>
				
					<linearGradient id="SVGID_00000103951940796415863570000017624969314379967929_" gradientUnits="userSpaceOnUse" x1="2115.8711" y1="2867.2495" x2="1967.743" y2="2533.3335" gradientTransform="matrix(0.9976 -0.0694 0.0694 0.9976 -160.8932 92.9864)">
					<stop  offset="0" style="stop-color:#311944"/>
					<stop  offset="1" style="stop-color:#893976"/>
				</linearGradient>
				<path style="fill:url(#SVGID_00000103951940796415863570000017624969314379967929_);" d="M2083.679,2359.824
					c-10.319,94.979-19.804,191.782-28.338,290.359c-6.405,73.972-12.109,147.039-17.158,219.175
					c-8.789,0.611-17.579,1.224-26.368,1.835c-7.599-16.159-17.523-40.774-23.555-71.966c-7.328-37.884-3.983-59.97-6.003-98.936
					c-2.267-43.703-8.426-53.527-17.304-108.979c-18.019-112.539-27.028-168.81,1.547-201.987
					C1975.775,2378.553,2004.48,2351.825,2083.679,2359.824z"/>
				
					<linearGradient id="SVGID_00000140697729490271479010000001875405799342510740_" gradientUnits="userSpaceOnUse" x1="2035.3658" y1="2570.583" x2="2296.8333" y2="1966.4338">
					<stop  offset="0.0036" style="stop-color:#E38DDD"/>
					<stop  offset="1" style="stop-color:#9571F6"/>
				</linearGradient>
				<path style="opacity:0.3;fill:url(#SVGID_00000140697729490271479010000001875405799342510740_);" d="M2342.779,1927.313
					c-0.421,11.626-2.793,21.223-5.967,29.094c-11.495,28.494-38.849,49.281-33.172,81.214c2.837,15.959,11.588,21.558,8.007,33.173
					c-5.075,16.462-25.884,15.69-48.042,34.315c-19.656,16.523-20.762,31.828-30.885,45.754
					c-13.707,18.861-44.66,36.111-119.685,30.636c6.664,8.462,14.658,15.437,24.286,20.118
					c67.918,33.016,195.773-56.859,216.648-169.716C2361.161,1993.021,2354.281,1957.131,2342.779,1927.313z"/>
				
					<linearGradient id="SVGID_00000057134430047619055170000014961484779038782349_" gradientUnits="userSpaceOnUse" x1="1949.8409" y1="2421.6328" x2="2176.3328" y2="1898.2986">
					<stop  offset="0" style="stop-color:#AA80F9"/>
					<stop  offset="0.9964" style="stop-color:#6165D7"/>
				</linearGradient>
				<path style="fill:url(#SVGID_00000057134430047619055170000014961484779038782349_);" d="M2207.624,2239.074
					c-2.963,42.416-5.897,43.061-12.701,102.929c-6.541,57.375-7.627,89.846-11.411,109.265c-2.64,13.61-6.6,20.797-14.695,25.637
					c-12.76,7.626-17.395-1.584-82.513-8.037c-43.677-4.342-65.97-6.365-88.087,1.144c-22.792,7.685-34.114,19.389-43.647,22.205
					c-2.23,0.646-4.341,0.822-6.482,0.352c-0.822-0.176-1.643-0.44-2.465-0.821c-11.938-5.339-13.433-25.93-14.871-61.775
					c-2.229-55.322-2.082-92.926-2.289-106.39c-0.733-47.871-10.295-87.001-23.906-130.297c-3.93-12.554-8.213-25.431-12.7-38.983
					c-12.527-37.781-25.726-68.346-35.815-89.817c47.488-16.104,119.941-33.938,208.527-30.301
					c51.333,2.112,95.449,10.941,130.414,20.709c4.722,26.458,9.444,52.887,14.197,79.316
					C2210.264,2160.727,2210.616,2196.63,2207.624,2239.074z"/>
				<g>
					
						<linearGradient id="SVGID_00000150789750486174088970000014201017174983804560_" gradientUnits="userSpaceOnUse" x1="2000.7444" y1="2170.9695" x2="2054.9351" y2="2043.1042">
						<stop  offset="0" style="stop-color:#311944"/>
						<stop  offset="1" style="stop-color:#893976"/>
					</linearGradient>
					<path style="fill:url(#SVGID_00000150789750486174088970000014201017174983804560_);" d="M2058.706,1973.014
						c-0.699,15.526-3.087,27.741-5.175,36.083c-2.392,9.557-3.877,11.98-5.711,13.912c-2.76,2.909-6.833,5.255-29.366,9.582
						c-12.262,2.354-13.815,2.189-14.146,3.375c-1.616,5.789,30.317,27.518,64.667,24.526c21.023-1.831,40.642-12.721,39.811-19.034
						c-0.837-6.354-21.859-4.091-27.464-15.805c-3.898-8.148,1.546-19.13,7.769-28.133
						C2084.099,1986.835,2063.696,1983.7,2058.706,1973.014z"/>
					<g>
						
							<linearGradient id="SVGID_00000125565009446940270870000011538790312857349793_" gradientUnits="userSpaceOnUse" x1="-334.487" y1="1783.9473" x2="-374.0168" y2="1683.5487" gradientTransform="matrix(-0.9988 -0.0496 -0.0496 0.9988 1789.584 252.4768)">
							<stop  offset="0" style="stop-color:#311944"/>
							<stop  offset="1" style="stop-color:#6B3976"/>
						</linearGradient>
						<path style="fill:url(#SVGID_00000125565009446940270870000011538790312857349793_);" d="M2097.104,1981.217
							c5.274-6.278,6.188-17.681,0.899-25.203c-4.551-6.473-12.187-7.769-16.759-8.546c-13.248-2.25-30.364,2.416-36.87,14.372
							c-3.854,7.085,2.838,22.593,3.867,25.371c1.166,3.142,3.52,4.324,5.627,6.765c2.919,3.385,7.484,8.764,14.925,17.749
							c0.749-2.494,1.849-5.572,3.512-8.884c0.64-1.275,3.204-6.25,6.898-10.29
							C2086.602,1984.449,2092.105,1987.167,2097.104,1981.217z"/>
						
							<linearGradient id="SVGID_00000005260315256090855050000001344542636297355449_" gradientUnits="userSpaceOnUse" x1="1926.2539" y1="2244.4131" x2="2094.9146" y2="1961.8917">
							<stop  offset="0" style="stop-color:#311944"/>
							<stop  offset="1" style="stop-color:#893976"/>
						</linearGradient>
						<path style="fill:url(#SVGID_00000005260315256090855050000001344542636297355449_);" d="M2057.911,2003.922
							c0,0,7.996,14.845,25.504,14.641c15.676-0.183,19.834-35.093,10.254-43.059c-3.197-2.658-9.809-4.045-15.31-2.815
							c-3.25,0.727-4.405,1.999-9.738,3.082c-4.919,1-6.26,0.389-7.791,1.543c-1.914,1.445-3.458,5.152-0.946,15.557
							c-2.82-3.176-6.335-4.526-8.934-3.465c-0.414,0.171-1.526,0.843-2.189,1.916
							C2046.364,1995.207,2049.746,2000.512,2057.911,2003.922z"/>
						
							<linearGradient id="SVGID_00000165198373180014144780000007153332943224033457_" gradientUnits="userSpaceOnUse" x1="-346.5622" y1="1788.7554" x2="-386.1328" y2="1688.2533" gradientTransform="matrix(-0.9988 -0.0496 -0.0496 0.9988 1789.584 252.4768)">
							<stop  offset="0" style="stop-color:#311944"/>
							<stop  offset="1" style="stop-color:#6B3976"/>
						</linearGradient>
						<path style="fill:url(#SVGID_00000165198373180014144780000007153332943224033457_);" d="M2060.235,1975.182
							c0.723,0.602-1.729,3.289-2.114,7.259c-0.747,7.704,6.575,17.391,14.506,18.602c4.689,0.715,6.137-2.056,13.973-2.463
							c4.853-0.252,8.836,0.577,11.333,1.264c1.997,8.599-0.758,16.92-6.628,20.535c-6.32,3.892-13.968,0.918-17.166-0.326
							c-2.138-0.832-8.995-3.483-12.299-10.077c-3.443-6.871,0.5-10.691-3.618-15.433c-2.077-2.392-4.912-3.531-7.489-8.085
							c-0.699-1.237-1.153-2.323-1.426-3.051C2053.566,1979.35,2059.188,1974.309,2060.235,1975.182z"/>
					</g>
				</g>
				
					<linearGradient id="SVGID_00000181058143687040881310000012987549715642768827_" gradientUnits="userSpaceOnUse" x1="1993.1721" y1="2442.3198" x2="2213.5767" y2="1933.051">
					<stop  offset="0.0036" style="stop-color:#E38DDD"/>
					<stop  offset="1" style="stop-color:#9571F6"/>
				</linearGradient>
				<path style="opacity:0.3;fill:url(#SVGID_00000181058143687040881310000012987549715642768827_);" d="M2183.718,2451.239
					c-2.641,13.962-6.6,21.237-14.901,26.077c-12.76,7.421-17.395-1.525-82.513-7.832c-43.677-4.195-65.97-6.16-88.087,1.115
					c-22.792,7.509-34.114,18.89-43.647,21.618c-2.23,0.646-4.341,0.822-6.482,0.352c-0.822-0.176-1.643-0.44-2.465-0.821
					c-11.938-5.339-13.433-25.93-14.871-61.775c-2.229-55.322-2.082-92.926-2.289-106.39
					c-0.733-47.871-10.295-87.001-23.906-130.297c19.771-8.037,30.36-6.306,36.49-2.17c17.689,11.909-1.7,43.647,18.304,77.937
					c21.062,36.167,60.367,31.474,66.321,57.903c7.509,33.263-48.839,66.967-41.183,77.938
					c7.392,10.589,54.559-27.514,97.238-11.117c29.92,11.499,29.744,39.013,61.776,52.33c13.257,5.515,27.016,6.512,40.009,5.163
					C2183.571,2451.239,2183.658,2451.239,2183.718,2451.239z"/>
				
					<linearGradient id="SVGID_00000033330373865372140490000003368542457362601092_" gradientUnits="userSpaceOnUse" x1="1859.4159" y1="2364.666" x2="1971.4502" y2="2297.0801">
					<stop  offset="0" style="stop-color:#311944"/>
					<stop  offset="1" style="stop-color:#893976"/>
				</linearGradient>
				<path style="fill:url(#SVGID_00000033330373865372140490000003368542457362601092_);" d="M1899.856,2323.636l15.718-0.877
					c0,0,17.221-14.411,25.059-13.511c7.838,0.899,19.563,6.337,20.992,7.479c1.43,1.141-4.29,7.531-10.009,6.91
					c-5.719-0.622-18.482,2.465-20.764,7.503c-2.282,5.038-12.188,8.081-13.871,5.126l-21.129,4.193L1899.856,2323.636z"/>
				
					<linearGradient id="SVGID_00000101080484691295267410000013235733021806788258_" gradientUnits="userSpaceOnUse" x1="1776.2944" y1="2346.5149" x2="2002.7783" y2="1823.1992">
					<stop  offset="0" style="stop-color:#AA80F9"/>
					<stop  offset="0.9964" style="stop-color:#6165D7"/>
				</linearGradient>
				<path style="fill:url(#SVGID_00000101080484691295267410000013235733021806788258_);" d="M1904.611,2318.137
					c1.1,12.895-1.708,21.652-6.395,27.657c-20.774,26.618-91.374,15.734-133.335-19.92c-31.06-26.392-47.506-67.372-46.898-104.091
					c1.186-71.65,67.587-141.857,166.36-166.113c14.621,43.707,29.242,87.412,43.863,131.119
					c-60.895,0.929-97.891,46.834-92.405,79.605C1839.887,2290.807,1868.36,2312.766,1904.611,2318.137z"/>
			</g>
			<g>
				
					<linearGradient id="SVGID_00000034792971661098234180000014045717057643871617_" gradientUnits="userSpaceOnUse" x1="2443.6228" y1="2770.7312" x2="2455.3643" y2="2982.0803">
					<stop  offset="0" style="stop-color:#444B8C"/>
					<stop  offset="0.9964" style="stop-color:#26264F"/>
				</linearGradient>
				<path style="fill:url(#SVGID_00000034792971661098234180000014045717057643871617_);" d="M2473.034,2845.884
					c0,0,1.468,11.683,0.483,15.597c-0.987,3.915-34.954,6.743-46.484,5.382c-11.53-1.36,6.868-13.138,14.214-15.348
					C2448.592,2849.304,2473.034,2845.884,2473.034,2845.884z"/>
				
					<linearGradient id="SVGID_00000097458323773784347240000016974817742627392175_" gradientUnits="userSpaceOnUse" x1="2465.7976" y1="2874.887" x2="2459.5603" y2="2589.5374">
					<stop  offset="0" style="stop-color:#FFC444"/>
					<stop  offset="0.9964" style="stop-color:#F36F56"/>
				</linearGradient>
				<path style="fill:url(#SVGID_00000097458323773784347240000016974817742627392175_);" d="M2455.935,2826.394l3.58,23.44
					c0,0,9.13,4.103,13.519,0.048l0.483-24.535L2455.935,2826.394z"/>
				
					<linearGradient id="SVGID_00000156580733339604240530000017867564684406608273_" gradientUnits="userSpaceOnUse" x1="2656.1345" y1="2758.9299" x2="2667.8755" y2="2970.2668">
					<stop  offset="0" style="stop-color:#444B8C"/>
					<stop  offset="0.9964" style="stop-color:#26264F"/>
				</linearGradient>
				<path style="fill:url(#SVGID_00000156580733339604240530000017867564684406608273_);" d="M2647.423,2825.347
					c0,0-7.208,5.348-5.286,11.753c1.921,6.406,18.739,32.07,30.725,39.355c11.985,7.284,8.228-7.892,4.74-17.344
					c-3.488-9.453-12.4-30.274-15.879-33.764C2658.244,2821.858,2647.423,2825.347,2647.423,2825.347z"/>
				
					<linearGradient id="SVGID_00000034791114298255453530000000727399033122487959_" gradientUnits="userSpaceOnUse" x1="2652.8977" y1="2870.7969" x2="2646.6604" y2="2585.4517">
					<stop  offset="0" style="stop-color:#FFC444"/>
					<stop  offset="0.9964" style="stop-color:#F36F56"/>
				</linearGradient>
				<path style="fill:url(#SVGID_00000034791114298255453530000000727399033122487959_);" d="M2634.458,2799.597
					c3.484,9.711,6.836,17.695,9.457,23.584c5.799,13.029,8.968,17.918,12.558,22.157c3.131,3.691,10.542,11.569,12.533,10.257
					c2.023-1.329-3.399-10.906-13.848-38.956c-1.518-4.07-6.312-17.042-6.312-17.042l0,0H2634.458z"/>
				
					<linearGradient id="SVGID_00000045612449259070875970000002333728919324643240_" gradientUnits="userSpaceOnUse" x1="2375.2021" y1="2689.4238" x2="2493.708" y2="2530.3765">
					<stop  offset="0" style="stop-color:#AA80F9"/>
					<stop  offset="0.9964" style="stop-color:#6165D7"/>
				</linearGradient>
				<path style="fill:url(#SVGID_00000045612449259070875970000002333728919324643240_);" d="M2384.8,2393.799
					c-2.485,24.41-4.871,62.297-1.305,108.279c4.648,59.909,16.627,97.818,31.649,161.696
					c9.182,39.036,21.552,96.492,32.748,168.348c2.597,1.486,10.239,5.396,20.079,3.937c5.508-0.818,9.629-3.008,12.062-4.583
					c29.373-89.755,20.698-145.375,6.523-180.029c-6.041-14.771-13.367-26.425-17.283-49.131
					c-5.181-30.041,1.225-46.835,10.361-116.42c6.512-49.598,5.384-57.264,1.052-64.702
					C2463.366,2391.455,2410.392,2392.036,2384.8,2393.799z"/>
				
					<linearGradient id="SVGID_00000018229637026603237880000003187233344254833823_" gradientUnits="userSpaceOnUse" x1="1638.5251" y1="2251.4648" x2="1681.553" y2="2514.5972" gradientTransform="matrix(0.981 -0.194 0.194 0.981 124.1931 236.6994)">
					<stop  offset="0" style="stop-color:#FFC444"/>
					<stop  offset="0.9964" style="stop-color:#F36F56"/>
				</linearGradient>
				<path style="fill:url(#SVGID_00000018229637026603237880000003187233344254833823_);" d="M2202.13,2142.639
					c0,0-4.122-16.169-10.983-20.438c-6.86-4.267-16.557-8.83-18.78-10.705c-2.222-1.875-4.817,3.729,1.586,8.018
					c6.401,4.289,6.401,4.289,6.401,4.289c0.134,1.183-0.046,2.103-0.262,2.75c-1.014,3.036-4.474,5.117-8.75,5.51
					c-16.427,3.44-22.846,3.608-25.351,2.875c-0.372-0.109-1.801-0.573-2.404,0.063c-0.967,1.018,0.771,4.245,1.513,5.376
					c4.445,6.788,19.872,9.741,31.424,4.431c4.219-1.937,5.834-4.02,8.913-3.497c4.889,0.829,7.892,7.28,9.668,12.619
					L2202.13,2142.639z"/>
				
					<linearGradient id="SVGID_00000034808362126762186010000012458171656403231423_" gradientUnits="userSpaceOnUse" x1="2463.2339" y1="2709.1624" x2="2740.7874" y2="2450.3208">
					<stop  offset="0" style="stop-color:#AA80F9"/>
					<stop  offset="0.9964" style="stop-color:#6165D7"/>
				</linearGradient>
				<path style="fill:url(#SVGID_00000034808362126762186010000012458171656403231423_);" d="M2485.903,2404.237
					c17.994,92.926,35.654,141.732,49.02,169.337c3.295,6.807,14.292,28.772,24.688,60.261
					c9.203,27.872,13.038,48.377,15.003,57.401c6.204,28.484,21.535,70.075,62.791,124.625c0.514,0.303,7.549,4.281,14.274,0.735
					c3.404-1.797,5.1-4.659,5.774-5.993c-5.394-52.154-11.585-95.98-16.958-129.804c-1.129-7.094-6.094-38.132-13.882-79.138
					c-3.047-16.048-7.513-39.56-12.863-63.711c-6.66-30.075-16.873-70.99-32.614-120.017
					C2549.391,2413.367,2517.646,2408.803,2485.903,2404.237z"/>
				
					<linearGradient id="SVGID_00000009591968535918722830000001148202633558238600_" gradientUnits="userSpaceOnUse" x1="2188.8806" y1="2122.0977" x2="2411.5049" y2="2122.0977">
					<stop  offset="0.0036" style="stop-color:#E38DDD"/>
					<stop  offset="1" style="stop-color:#9571F6"/>
				</linearGradient>
				<path style="fill:url(#SVGID_00000009591968535918722830000001148202633558238600_);" d="M2188.881,2147.767
					c4.677-4.158,9.355-8.316,14.033-12.474c1.712,1.73,26.684,26.098,61.592,18.711c24.036-5.087,37.899-24.825,46.779-37.423
					c26.672-37.842,10.72-65.609,39.439-91.322c7.976-7.14,23.619-15.786,33.847-13.15c24.37,6.282,38.4,79.571,14.814,137.217
					c-4.76,11.635-30.975,75.701-90.44,82.642C2260.932,2237.572,2210.02,2203.743,2188.881,2147.767z"/>
				
					<linearGradient id="SVGID_00000084532399098904243080000015998332712989040045_" gradientUnits="userSpaceOnUse" x1="2657.1433" y1="2245.7566" x2="2574.9565" y2="2129.3252">
					<stop  offset="0" style="stop-color:#444B8C"/>
					<stop  offset="0.9964" style="stop-color:#26264F"/>
				</linearGradient>
				<path style="fill:url(#SVGID_00000084532399098904243080000015998332712989040045_);" d="M2470.574,2036.677
					c-10.205-9.433-29.728-20.307-39.52-45.586c-2.948-7.609-13.39-34.568,2.014-55.191c9.142-12.242,26.125-20.555,41.094-17.612
					c12.791,2.515,14.791,11.424,36.527,29.354c8.461,6.978,22.06,18.196,37.195,24.432c25.931,10.687,41.51,0.631,67.542,1.778
					c31.981,1.41,69.134,19.258,87.033,45.214c31.771,46.066-14.252,92.796,20.547,146.763
					c11.402,17.68,17.022,13.716,44.029,47.942c27.042,34.271,40.564,51.405,38.159,72.403
					c-3.339,29.142-34.729,56.98-64.288,58.872c-28.874,1.85-47.229-20.866-61.929-10.93c-10.463,7.07-4.48,20.825-15.593,37.354
					c-14.324,21.312-42.479,25.559-47.026,26.242c-42.205,6.367-99.111-43.123-123.281-101.755
					C2449.495,2190.227,2526.052,2087.959,2470.574,2036.677z"/>
				
					<linearGradient id="SVGID_00000111159597619394088530000007527161450610898052_" gradientUnits="userSpaceOnUse" x1="2390.3186" y1="2700.6875" x2="2508.8245" y2="2541.6401">
					<stop  offset="0" style="stop-color:#AA80F9"/>
					<stop  offset="0.9964" style="stop-color:#6165D7"/>
				</linearGradient>
				<path style="opacity:0.3;fill:url(#SVGID_00000111159597619394088530000007527161450610898052_);" d="M2486.555,2651.447
					c-6.041-14.772-13.367-26.426-17.283-49.131c-5.181-30.041,1.225-46.835,10.361-116.42c6.512-49.598,5.384-57.264,1.052-64.702
					c-9.412-16.16-29.358-23.332-49.712-26.26c0.272,1.044,0.546,2.089,0.767,3.099c10.68,48.774-30.08,78.534-11.694,132.149
					c9.064,26.434,23.527,32.489,26.897,63.151c3.157,28.723-8.292,34.707-5.847,60.813c3.655,39.025,31.378,48.469,38.592,78.354
					c4.687,19.419,0.74,47.814-33.496,88.915c0.569,3.541,1.137,7.094,1.7,10.707c2.599,1.486,10.239,5.396,20.079,3.937
					c5.508-0.818,9.629-3.008,12.062-4.583C2509.406,2741.72,2500.73,2686.1,2486.555,2651.447z"/>
				
					<linearGradient id="SVGID_00000001625795086620142220000003312595000810934670_" gradientUnits="userSpaceOnUse" x1="2188.8806" y1="2149.4792" x2="2411.5042" y2="2149.4792">
					<stop  offset="0" style="stop-color:#AA80F9"/>
					<stop  offset="0.9964" style="stop-color:#6165D7"/>
				</linearGradient>
				<path style="opacity:0.15;fill:url(#SVGID_00000001625795086620142220000003312595000810934670_);" d="M2379.113,2082.277
					c-43.949,34.713-39.057,101.292-66.075,104.667c-8.252,1.031-7.798-5.295-27.482-11.695c-28.79-9.36-42.315,0.095-62.567-7.017
					c-8.387-2.945-19.298-9.236-30.042-24.08c-1.356,1.205-2.712,2.41-4.067,3.615c21.14,55.977,72.052,89.805,120.064,84.201
					c59.464-6.941,85.679-71.007,90.44-82.642c11.067-27.049,13.851-57.541,11.172-82.939
					C2400.412,2069.347,2389.393,2074.158,2379.113,2082.277z"/>
				
					<linearGradient id="SVGID_00000011722922414687636680000013991472577598122403_" gradientUnits="userSpaceOnUse" x1="2341.8696" y1="2257.4861" x2="2786.6594" y2="2257.4861">
					<stop  offset="0.0036" style="stop-color:#E38DDD"/>
					<stop  offset="1" style="stop-color:#9571F6"/>
				</linearGradient>
				<path style="fill:url(#SVGID_00000011722922414687636680000013991472577598122403_);" d="M2347.232,2029.651
					c2.693-4.183,11.255-15.775,47.592-24.318c18.211-4.281,51.881-11.616,95.209-2.435c59.509,12.609,96.571,48.317,110.52,63.326
					c-11.423,7.438-42.944,30.132-58.555,73.187c-4.858,13.396-19.207,59.19,1.315,102.083
					c11.824,24.717,32.741,43.272,48.627,57.368c23.829,21.138,36.169,24.387,44.157,43.325
					c8.699,20.623-0.067,30.678,10.737,44.797c11.602,15.162,25.196,8.114,44.862,23.447c20.145,15.704,12.977,28.63,31.31,45.986
					c26.639,25.216,61.953,17.027,63.597,28.374c1.415,9.761-23.683,23.004-45.007,28.374
					c-42.228,10.636-79.061-7.216-90.014-12.719c-30.325-15.234-25.087-25.095-48.207-36.71
					c-38.713-19.447-65.171,2.194-153.347,4.421c-47.75,1.209-71.895,1.48-85.122-14.676c-12.081-14.757-5.73-30.943,1.519-100.701
					c0,0,0-0.003,0-0.008c2.329-23.297,7.207-72.074,7.237-99.871c0.018-16.427-5.679-43.267-17.074-96.949
					c-0.673-3.166-6.839-32.168-11.821-70.91C2340.281,2050.156,2340.931,2039.443,2347.232,2029.651z"/>
				<g style="opacity:0.15;">
					
						<linearGradient id="SVGID_00000139278909705877968990000015335396567295561610_" gradientUnits="userSpaceOnUse" x1="2568.449" y1="1999.1233" x2="2636.2856" y2="2413.9722">
						<stop  offset="0" style="stop-color:#AA80F9"/>
						<stop  offset="0.9964" style="stop-color:#6165D7"/>
					</linearGradient>
					<path style="fill:url(#SVGID_00000139278909705877968990000015335396567295561610_);" d="M2723.005,2456.417
						c-18.333-17.356-11.164-30.282-31.31-45.986c-19.666-15.334-33.26-8.286-44.862-23.447
						c-10.803-14.119-2.037-24.174-10.737-44.797c-7.988-18.938-20.328-22.187-44.157-43.326
						c-15.886-14.095-36.803-32.65-48.627-57.367c-20.522-42.893-6.173-88.688-1.315-102.083
						c15.611-43.055,47.132-65.749,58.555-73.187c-1.099-1.185-2.396-2.534-3.784-3.956
						c-75.258,10.342-119.137,53.828-124.563,66.705c-12.545,29.764,7.314,40.7,7.827,126.544
						c0.244,41.032-4.181,57.234,9.132,74.36c15.226,19.587,32.773,13.525,54.791,39.136c16.918,19.675,14.209,32.15,30.006,40.44
						c16.986,8.912,27.805-1.475,46.963,2.611c32.007,6.825,38.85,43.73,60.009,63.921c16.001,15.268,45.584,25.943,103.929,14.485
						c1.349-1.964,2.001-3.883,1.74-5.679C2784.957,2473.444,2749.644,2481.634,2723.005,2456.417z"/>
				</g>
				
					<linearGradient id="SVGID_00000117639445581711990750000013508925179529215418_" gradientUnits="userSpaceOnUse" x1="2493.9304" y1="2129.4819" x2="2671.3464" y2="2129.4819">
					<stop  offset="0.0036" style="stop-color:#E38DDD"/>
					<stop  offset="1" style="stop-color:#9571F6"/>
				</linearGradient>
				<path style="fill:url(#SVGID_00000117639445581711990750000013508925179529215418_);" d="M2495.034,2152.128
					c-8,16.99,28.762,56.558,69.622,75.346c8.324,3.83,68.108,31.317,94.753,4.885c22.017-21.843,7.807-67.008,2.735-83.132
					c-24.909-79.176-101.408-119.452-133.467-133.978c-23.926,59.825-9.835,86.483-4.289,94.807
					c5.794,8.695,21.964,26.96,39.136,43.051c12.08,11.317,19.603,16.825,18.591,18.59c-1.259,2.197-15.418-1.952-70.416-28.722
					C2505.322,2144.008,2497.768,2146.328,2495.034,2152.128z"/>
				
					<linearGradient id="SVGID_00000039850950441389762100000011050420280923606161_" gradientUnits="userSpaceOnUse" x1="2455.6926" y1="2013.9811" x2="2528.1992" y2="1908.7294">
					<stop  offset="0" style="stop-color:#FFC444"/>
					<stop  offset="0.9964" style="stop-color:#F36F56"/>
				</linearGradient>
				<path style="fill:url(#SVGID_00000039850950441389762100000011050420280923606161_);" d="M2465.606,1956.377
					c0,0,3.795,30.342,14.994,37.294c11.2,6.948,29.304,16.029,31.298,18.495c1.994,2.461-69.376,10.136-104.744-7.712l0,0
					c11.656-2.431,14.825-3.325,14.825-3.325c3.163-0.895,9.064-2.557,14.98-5.928c4.026-2.293,10.517-6.773,16.469-15.231
					l-0.13-16.8L2465.606,1956.377z"/>
				
					<linearGradient id="SVGID_00000041290067772697057030000014217001177112322489_" gradientUnits="userSpaceOnUse" x1="2449.1204" y1="1960.5952" x2="2563.729" y2="1891.5961">
					<stop  offset="0" style="stop-color:#FFC444"/>
					<stop  offset="0.9964" style="stop-color:#F36F56"/>
				</linearGradient>
				<path style="fill:url(#SVGID_00000041290067772697057030000014217001177112322489_);" d="M2467.309,1967.124
					c0,0-7.302,10.022-18.752,5.845c-10.253-3.739-4.134-30.221,3.999-33.241c2.713-1.007,7.694-0.562,11.024,1.515
					c2.342,1.461,8.595,9.23,5.01,17.936c2.59-0.75,4.87-0.069,5.441,1.214c0.725,1.627-1.469,3.842-1.965,4.345
					C2470.344,1966.478,2468.267,1966.964,2467.309,1967.124z"/>
				
					<linearGradient id="SVGID_00000056387899966411272410000010011488312266046602_" gradientUnits="userSpaceOnUse" x1="2480.3357" y1="2120.1975" x2="2531.384" y2="2432.3792">
					<stop  offset="0" style="stop-color:#FFC444"/>
					<stop  offset="0.9964" style="stop-color:#F36F56"/>
				</linearGradient>
				<path style="fill:url(#SVGID_00000056387899966411272410000010011488312266046602_);" d="M2508.924,2148.156
					c0,0-33.525-34.304-47.169-39.371c-13.643-5.068-5.458,2.339,0,6.627c5.458,4.288,9.094,5.697,6.301,12.204
					c-2.793,6.508-7.865,12.283,0.129,17.386c7.993,5.103,11.112,7.052,17.35,7.831c6.237,0.781,6.237,0.781,6.237,0.781
					l8.187,4.365C2499.959,2157.979,2510.483,2156.732,2508.924,2148.156z"/>
			</g>
			<g>
				<path style="fill:#B7C0CE;" d="M2400.836,2968.767c-1.32,0-2.436-1.007-2.559-2.336l-46.635-503.983
					c-0.131-1.415,0.909-2.667,2.324-2.799c1.41-0.117,2.668,0.91,2.799,2.325l41.5,448.49v-459.407
					c0-1.421,1.152-2.573,2.573-2.573c1.421,0,2.573,1.152,2.573,2.573v515.137c0,1.375-1.08,2.507-2.455,2.571
					C2400.916,2968.766,2400.876,2968.767,2400.836,2968.767z"/>
				<g>
					<polygon style="opacity:0.81;fill:#F4F7FA;" points="2920.856,2506.186 2409.251,2450.132 1426.369,2494.808 
						1941.139,2556.449 					"/>
					<polygon style="fill:#B7C0CE;" points="1941.139,2556.45 2920.856,2506.185 2920.856,2530.463 1941.139,2580.727 
						1426.369,2519.085 1426.369,2494.807 					"/>
				</g>
				<path style="fill:#B7C0CE;" d="M1944.617,3144.543c-0.034,0-0.068,0-0.102-0.002c-1.381-0.054-2.472-1.189-2.472-2.571v-567.149
					c0-1.421,1.152-2.573,2.573-2.573c1.421,0,2.573,1.152,2.573,2.573v501.241l39.21-501.442c0.112-1.417,1.338-2.473,2.766-2.365
					c1.416,0.111,2.475,1.349,2.365,2.766l-44.349,567.149C1947.076,3143.514,1945.954,3144.543,1944.617,3144.543z"/>
				<path style="fill:#B7C0CE;" d="M1431.991,3043.792c-0.034,0-0.068-0.001-0.102-0.002c-1.381-0.054-2.472-1.189-2.472-2.571
					v-523.473c0-1.421,1.152-2.573,2.573-2.573c1.421,0,2.573,1.152,2.573,2.573v457.837l35.964-458.038
					c0.112-1.417,1.373-2.478,2.766-2.363c1.417,0.111,2.475,1.349,2.365,2.766l-41.102,523.473
					C1434.45,3042.764,1433.328,3043.792,1431.991,3043.792z"/>
				<path style="fill:#B7C0CE;" d="M2916.008,3043.792c-1.332,0-2.451-1.021-2.563-2.359l-43.643-523.473
					c-0.118-1.416,0.935-2.659,2.35-2.778c1.421-0.115,2.66,0.935,2.778,2.35l38.506,461.86v-448.929
					c0-1.421,1.152-2.573,2.573-2.573c1.421,0,2.573,1.152,2.573,2.573v510.756c0,1.379-1.088,2.513-2.466,2.57
					C2916.08,3043.791,2916.043,3043.792,2916.008,3043.792z"/>
			</g>
			<g>
				
					<linearGradient id="SVGID_00000024716452984628356070000016312637200686533823_" gradientUnits="userSpaceOnUse" x1="1314.6536" y1="2978.4595" x2="1344.4601" y2="3004.9724" gradientTransform="matrix(-0.9902 -0.14 -0.14 0.9902 3687.3257 206.9384)">
					<stop  offset="0" style="stop-color:#444B8C"/>
					<stop  offset="0.9964" style="stop-color:#26264F"/>
				</linearGradient>
				<path style="fill:url(#SVGID_00000024716452984628356070000016312637200686533823_);" d="M1960.19,2985.643
					c-0.848-4.673-15.938-8.902-23.41-2.643c-3.71,3.108-6.265,9.407-4.118,12.252c0.781,1.035-2.418,2.855,0.647,2.891
					C1943.474,2998.261,1961.034,2990.286,1960.19,2985.643z"/>
				
					<linearGradient id="SVGID_00000096745948717504103330000015372873400988487836_" gradientUnits="userSpaceOnUse" x1="1047.9635" y1="3474.9155" x2="1047.9635" y2="3422.9893" gradientTransform="matrix(-0.9988 0.0498 0.0498 0.9988 2810.8794 -528.7908)">
					<stop  offset="0" style="stop-color:#FFC444"/>
					<stop  offset="0.9964" style="stop-color:#F36F56"/>
				</linearGradient>
				<path style="fill:url(#SVGID_00000096745948717504103330000015372873400988487836_);" d="M1943.689,2985.668l-15.654,0.781
					c5.423-9.86-1.097-36.678-1.097-36.678l16.904,0.496c0,0-0.416,7.786-1.447,19.351
					C1942.042,2973.577,1942.693,2979.541,1943.689,2985.668z"/>
				
					<linearGradient id="SVGID_00000117638781630116369340000010643564931705177739_" gradientUnits="userSpaceOnUse" x1="1317.6503" y1="2975.0913" x2="1347.4567" y2="3001.6042" gradientTransform="matrix(-0.9902 -0.14 -0.14 0.9902 3687.3257 206.9384)">
					<stop  offset="0" style="stop-color:#444B8C"/>
					<stop  offset="0.9964" style="stop-color:#26264F"/>
				</linearGradient>
				<path style="fill:url(#SVGID_00000117638781630116369340000010643564931705177739_);" d="M1945.75,2985.432
					c0,0-18.684-4.305-20.705-0.599c-2.022,3.707-3.591,13.63,8.264,13.31C1945.164,2997.823,1946.803,2988.575,1945.75,2985.432z"
					/>
				
					<linearGradient id="SVGID_00000076569846965958922260000012236130539134079678_" gradientUnits="userSpaceOnUse" x1="1522.5725" y1="2990.1484" x2="1552.3805" y2="3016.6628" gradientTransform="matrix(-1 0 0 1 3584.4829 0)">
					<stop  offset="0" style="stop-color:#444B8C"/>
					<stop  offset="0.9964" style="stop-color:#26264F"/>
				</linearGradient>
				<path style="fill:url(#SVGID_00000076569846965958922260000012236130539134079678_);" d="M2055.5,3004.676
					c-1.494-4.507-17.028-6.584-23.551,0.659c-3.238,3.596-4.887,10.191-2.363,12.707c0.918,0.917-1.993,3.167,1.046,2.773
					C2040.714,3019.51,2056.985,3009.154,2055.5,3004.676z"/>
				
					<linearGradient id="SVGID_00000130639772060861276520000001532413309445097862_" gradientUnits="userSpaceOnUse" x1="1333.4678" y1="3407.2334" x2="1333.4678" y2="3355.3059" gradientTransform="matrix(-0.9813 0.1926 0.1926 0.9813 2684.261 -582.0115)">
					<stop  offset="0" style="stop-color:#FFC444"/>
					<stop  offset="0.9964" style="stop-color:#F36F56"/>
				</linearGradient>
				<path style="fill:url(#SVGID_00000130639772060861276520000001532413309445097862_);" d="M2037.144,3009.017l-15.38,3.018
					c3.953-10.536-6.348-36.141-6.348-36.141l16.8-1.934c0,0,0.706,7.765,1.344,19.359
					C2033.779,2997.288,2035.278,3003.097,2037.144,3009.017z"/>
				
					<linearGradient id="SVGID_00000091726062314099398410000013007490000625896609_" gradientUnits="userSpaceOnUse" x1="1525.5692" y1="2986.7805" x2="1555.3768" y2="3013.2947" gradientTransform="matrix(-1 0 0 1 3584.4829 0)">
					<stop  offset="0" style="stop-color:#444B8C"/>
					<stop  offset="0.9964" style="stop-color:#26264F"/>
				</linearGradient>
				<path style="fill:url(#SVGID_00000091726062314099398410000013007490000625896609_);" d="M2041.172,3006.487
					c0,0-19.103-1.647-20.585,2.306c-1.482,3.952-1.647,13.998,10.046,12.021
					C2042.325,3018.839,2042.655,3009.451,2041.172,3006.487z"/>
				<g>
					<path style="fill:#26264F;" d="M1959.452,2538.387l66.005-154.616c3.298-7.725-1.131-16.562-9.293-18.544l-120.907-29.363
						c-6.535-1.587-13.247,1.843-15.79,8.068l-60.71,148.605c-3.023,7.4,0.962,15.799,8.605,18.137l115.612,35.374
						C1949.618,2548.081,1956.724,2544.777,1959.452,2538.387z"/>
					
						<linearGradient id="SVGID_00000011749980652681347330000009594177685167179905_" gradientUnits="userSpaceOnUse" x1="-941.1408" y1="2445.1772" x2="-999.7591" y2="2329.5249" gradientTransform="matrix(-1 0 0 1 975.4035 0)">
						<stop  offset="0" style="stop-color:#FF9085"/>
						<stop  offset="1" style="stop-color:#FB6FBB"/>
					</linearGradient>
					<path style="fill:url(#SVGID_00000011749980652681347330000009594177685167179905_);" d="M1956.465,2530.951l61.654-144.422
						c3.08-7.216-1.056-15.47-8.68-17.322l-112.936-27.427c-6.103-1.482-12.373,1.721-14.749,7.536l-56.708,138.807
						c-2.824,6.912,0.898,14.757,8.038,16.942l107.99,33.042C1947.279,2540.005,1953.917,2536.919,1956.465,2530.951z"/>
				</g>
				
					<linearGradient id="SVGID_00000028289445224162979040000006183038310913570702_" gradientUnits="userSpaceOnUse" x1="-1017.2691" y1="2432.8293" x2="-1035.4884" y2="2516.0042" gradientTransform="matrix(-1 0 0 1 975.4035 0)">
					<stop  offset="0" style="stop-color:#FFC444"/>
					<stop  offset="0.9964" style="stop-color:#F36F56"/>
				</linearGradient>
				<path style="fill:url(#SVGID_00000028289445224162979040000006183038310913570702_);" d="M1994.527,2488.495l1.98-18.219
					l10.498-20.011c1.43-2.725,2.176-5.757,2.176-8.834v-19.871l-12.674,29.31c0,0-8.318-7.525-11.486-9.11
					c-3.169-1.584-2.772,4.753-0.396,7.13c2.376,2.376-1.188,21.784,1.188,23.764l-0.792,11.882L1994.527,2488.495z"/>
				
					<linearGradient id="SVGID_00000123416043129355115340000005021395260475242142_" gradientUnits="userSpaceOnUse" x1="-852.6405" y1="2425.6738" x2="-641.9312" y2="2626.8772" gradientTransform="matrix(-1 0 0 1 975.4035 0)">
					<stop  offset="0.0036" style="stop-color:#E38DDD"/>
					<stop  offset="1" style="stop-color:#9571F6"/>
				</linearGradient>
				<path style="fill:url(#SVGID_00000123416043129355115340000005021395260475242142_);" d="M1893.925,2372.447
					c-9.856-24.102-31.013-37.964-41.984-45.152c-25.958-17.008-42.576-13.903-102.186-22.972
					c-79.443-12.087-88.953-23.541-115.652-14.258c-35.073,12.193-53.392,44.029-61.787,58.618
					c-42.323,73.551,7.159,110.934-5.545,257.446c-5.188,59.836-18.491,111.833,13.467,142.585
					c6.729,6.475,14.255,9.862,29.309,16.635c59.701,26.863,113.227,22.232,145.754,19.011c35.792-3.543,53.881-5.573,63.371-18.219
					c15.159-20.2-0.446-45.873-3.169-90.304c-1.955-31.899,5.298-57.177,19.804-107.731
					C1869.029,2450.577,1912.809,2418.624,1893.925,2372.447z"/>
				<g>
					<g>
						
							<linearGradient id="SVGID_00000103261105985602671410000014522158988254246308_" gradientUnits="userSpaceOnUse" x1="2684.657" y1="2524.457" x2="2816.0984" y2="2689.8269" gradientTransform="matrix(-0.9663 0.2576 0.2576 0.9663 3719.7444 -923.8408)">
							<stop  offset="0" style="stop-color:#FFC444"/>
							<stop  offset="0.9964" style="stop-color:#F36F56"/>
						</linearGradient>
						<path style="fill:url(#SVGID_00000103261105985602671410000014522158988254246308_);" d="M1760.95,2260.968
							c3.616-12.885-2.707-24.818-4.1-27.389c-5.835-10.764-7.33-12.235-10.114-14.1l-3.87-2.387c0,0-0.224-0.09-0.46-0.174
							c-2.483-0.884-10.948-1.141-12.663-0.775c-5.478,1.17-11.31,23.486-9.646,55.037c-0.227,1.202-0.446,2.415-0.658,3.638
							c-0.863,4.982-1.548,9.866-2.078,14.641c-0.507,4.567-6.983,4.463-11.57,4.17c-18.615-1.188-27.725,0.396-28.517,3.168
							c-1.484,5.196,20.596,22.18,47.86,26.001c36.59,0.272,66.355-3.624,63.156-9.386c-1.421-2.558-29.771-9.966-37.744-17.308
							c-7.301-6.724-6.706-13.665-7.306-18.634C1745.453,2276.322,1758.288,2270.461,1760.95,2260.968z"/>
						<path style="fill:#26264F;" d="M1754.22,2208.129c-0.033,9.774-4.638,20.214-6.985,21.891
							c-0.302,0.217-2.008,1.564-3.54,3.867c-0.209,0.313-0.393,0.68-0.557,1.155c-2.141,6.159,7.652,13.408,5.762,16.167
							c-1.371,2-8.027-0.675-8.819,1.053c-0.746,1.625,4.786,4.993,3.939,6.94c-0.639,1.47-4.044,0.125-6.191,2.377
							c-1.07,1.122-0.756,2.011-1.89,5.44c-0.641,1.939-1.538,4.061-2.233,5.242c-3.378,5.739-12.946,7.836-14.787,5.539
							c-0.512-0.64-0.072-1.178-0.596-3.326c0,0-0.485-1.99-1.87-4.292c-1.979-3.289-6.756-5.641-11.577-9.112
							c-8.927-6.428-11.353-11.908-12.081-13.759c-0.259-0.659-0.42-1.157-0.536-1.516c-2.321-7.205-2.332-17.787,0.907-24.296
							c5.426-10.902,17.666-5.726,27.685-16.528c11.559-12.462,4.675-29.498,10.948-31.379
							C1738.713,2171.518,1754.28,2190.056,1754.22,2208.129z"/>
						
							<linearGradient id="SVGID_00000164492065705255971890000003455376964108014000_" gradientUnits="userSpaceOnUse" x1="2690.9482" y1="2516.1335" x2="2837.7034" y2="2700.7705" gradientTransform="matrix(-0.9663 0.2576 0.2576 0.9663 3719.7444 -923.8408)">
							<stop  offset="0" style="stop-color:#FFC444"/>
							<stop  offset="0.9964" style="stop-color:#F36F56"/>
						</linearGradient>
						<path style="fill:url(#SVGID_00000164492065705255971890000003455376964108014000_);" d="M1745.387,2248.912
							c-2.396-3.292-6.606-0.199-6.63,4.06c-0.025,4.259,4.102,8.687,8.105,7.846
							C1750.866,2259.977,1748.611,2253.343,1745.387,2248.912z"/>
					</g>
					<path style="fill:#26264F;" d="M1743.443,2241.787l5.558,7.23c0,0,5.991,8.858,9.49,4.005c2.857-3.965,3.598-3.876,3.773-3.711
						c0.033,0.032,0.042,0.079,0.05,0.077c0.05-0.013-0.419-1.973-0.841-3.697c1.479,2.124,3.519,5.569,4.753,10.205
						c1.2,4.503,2.485,9.323-0.055,13.955c-0.147,0.267-2.945,5.196-8.171,6.389c0,0-2.055,0.469-10.737-1.057
						c0,0,9.49-6.886,9.635-8.522c0.393-4.448-5.776-6.853-10.357-15.972C1744.776,2247.171,1743.905,2243.982,1743.443,2241.787z"
						/>
				</g>
				
					<linearGradient id="SVGID_00000005256630662443398020000002528215942531899274_" gradientUnits="userSpaceOnUse" x1="-930.4275" y1="2507.1357" x2="-719.718" y2="2708.3394" gradientTransform="matrix(-1 0 0 1 975.4035 0)">
					<stop  offset="0.0036" style="stop-color:#E38DDD"/>
					<stop  offset="1" style="stop-color:#9571F6"/>
				</linearGradient>
				<path style="opacity:0.3;fill:url(#SVGID_00000005256630662443398020000002528215942531899274_);" d="M1724.407,2742.376
					c10.53-20.966-15.272-48.836,1.585-80.798c14.316-27.146,40.323-21.065,52.281-45.944c14.443-30.05-16.967-52.509-15.843-98.225
					c1.345-54.652,48.37-109.36,76.045-104.562c17.906,3.104,20.206,29.817,32.805,59.062
					c-11.148,24.445-24.173,55.07-35.973,96.198c-14.506,50.554-21.759,75.831-19.804,107.731
					c2.723,44.432,18.328,70.104,3.169,90.304c-9.49,12.646-27.58,14.676-63.371,18.219c-32.526,3.22-86.053,7.851-145.754-19.011
					c-7.557-3.4-13.214-5.947-17.828-8.46C1684.989,2770.896,1716.055,2759.007,1724.407,2742.376z"/>
				
					<linearGradient id="SVGID_00000101783954086267680730000007549342018511927470_" gradientUnits="userSpaceOnUse" x1="-898.931" y1="2474.1514" x2="-688.2215" y2="2675.355" gradientTransform="matrix(-1 0 0 1 975.4035 0)">
					<stop  offset="0.0036" style="stop-color:#E38DDD"/>
					<stop  offset="1" style="stop-color:#9571F6"/>
				</linearGradient>
				<path style="fill:url(#SVGID_00000101783954086267680730000007549342018511927470_);" d="M1998.092,2484.931
					c-5.809-2.509-11.618-5.017-17.427-7.525c-9.818,10.041-22.34,19.805-32.874,16.635c-15.702-4.725-11.776-33.611-30.893-84.363
					c-21.662-57.504-46.238-72.285-58.618-77.63c-6.915-2.986-11.689-4.968-17.427-3.565c-26.404,6.454-35.134,75.26-27.725,126.742
					c4.174,29.007,12.359,85.883,59.015,112.88c6.628,3.835,43.109,24.945,79.214,8.317
					C1982.199,2562.218,2001.259,2525.771,1998.092,2484.931z"/>
				
					<linearGradient id="SVGID_00000088118148996247976750000012312904318353455777_" gradientUnits="userSpaceOnUse" x1="-707.6658" y1="2663.0867" x2="-880.3909" y2="2786.4619" gradientTransform="matrix(-1 0 0 1 975.4035 0)">
					<stop  offset="0" style="stop-color:#444B8C"/>
					<stop  offset="0.9964" style="stop-color:#26264F"/>
				</linearGradient>
				<path style="fill:url(#SVGID_00000088118148996247976750000012312904318353455777_);" d="M1953.92,2951.914
					c-9.655,1.072-19.311,2.147-28.966,3.218c-13.041-14.455-32.509-39.659-42.913-75.097
					c-19.931-67.887,11.274-112.446-9.655-129.814c-24.13-20.024-71.794,34.077-177.016,49.352
					c-33.866,4.916-109.048,15.832-139.468-24.676c-12.332-16.422-19.415-44.1-9.656-67.588
					c17.497-42.107,75.129-37.05,264.988-74.025c73.137-14.245,84.693-18.909,102.068-10.615
					C1999.233,2663.693,1963.399,2895.653,1953.92,2951.914z"/>
				
					<linearGradient id="SVGID_00000121982838065924556480000006317564648246637465_" gradientUnits="userSpaceOnUse" x1="-1080.1918" y1="2814.1604" x2="-652.4479" y2="2814.1604" gradientTransform="matrix(-1 0 0 1 975.4035 0)">
					<stop  offset="0" style="stop-color:#444B8C"/>
					<stop  offset="0.9964" style="stop-color:#26264F"/>
				</linearGradient>
				<path style="fill:url(#SVGID_00000121982838065924556480000006317564648246637465_);" d="M2040.102,2979.223
					c-9.656,1.072-19.311,2.146-28.966,3.218c-13.04-14.455-32.509-39.659-42.913-75.097
					c-19.932-67.887,11.274-112.446-9.656-129.814c-24.13-20.024-71.794,34.077-177.017,49.352
					c-33.866,4.916-109.047,15.831-139.467-24.676c-12.332-16.423-19.415-44.101-9.656-67.588
					c17.497-42.107,75.129-37.05,264.988-74.025c73.137-14.244,84.693-18.909,102.068-10.614
					C2085.416,2691.002,2049.582,2922.962,2040.102,2979.223z"/>
			</g>
			<g>
				<ellipse style="fill:#B7C0CE;" cx="1709.586" cy="3095.704" rx="160.129" ry="65.353"/>
				
					<linearGradient id="SVGID_00000134948399858673475480000004400239808352881818_" gradientUnits="userSpaceOnUse" x1="1549.4568" y1="3073.9766" x2="1869.715" y2="3073.9766">
					<stop  offset="0" style="stop-color:#AA80F9"/>
					<stop  offset="0.9964" style="stop-color:#6165D7"/>
				</linearGradient>
				<path style="fill:url(#SVGID_00000134948399858673475480000004400239808352881818_);" d="M1549.457,3088.04
					c0,34.071,71.692,61.691,160.129,61.691c88.438,0,160.13-27.62,160.13-61.691c0-34.07-71.692-89.819-160.13-89.819
					C1621.149,2998.221,1549.457,3053.97,1549.457,3088.04z"/>
				
					<linearGradient id="SVGID_00000026151052170415535920000014429260824067156110_" gradientUnits="userSpaceOnUse" x1="-1306.9801" y1="3058.2673" x2="-1037.8798" y2="3058.2673" gradientTransform="matrix(-1 0 0 1 511.5771 0)">
					<stop  offset="0" style="stop-color:#AA80F9"/>
					<stop  offset="0.9964" style="stop-color:#6165D7"/>
				</linearGradient>
				<path style="opacity:0.3;fill:url(#SVGID_00000026151052170415535920000014429260824067156110_);" d="M1549.457,3088.04
					c0-34.071,71.692-89.819,160.129-89.819c40.834,0,78.077,11.897,106.363,28.046c1.98,4.148,2.902,8.272,2.527,12.188
					c-1.837,19.169-33.101,30.955-51.047,34.841c-45.193,9.789-67.262-17.236-104.524-16.206
					c-23.038,0.636-54.962,12.21-92.827,61.223C1556.971,3109.369,1549.457,3099.046,1549.457,3088.04z"/>
				<path style="fill:#FFFFFF;" d="M1700.815,3029.168c6.398,1.592,12.368,1.529,17.984,0.102c5.094-1.293,8.591-6.006,8.591-11.263
					l-0.001-180.56h-35.607v180.346C1691.782,3023.212,1695.558,3027.86,1700.815,3029.168z"/>
				
					<linearGradient id="SVGID_00000013164422645473640910000005667631183496707253_" gradientUnits="userSpaceOnUse" x1="-1215.8124" y1="2933.8997" x2="-1180.2051" y2="2933.8997" gradientTransform="matrix(-1 0 0 1 511.5771 0)">
					<stop  offset="0" style="stop-color:#AA80F9"/>
					<stop  offset="0.9964" style="stop-color:#6165D7"/>
				</linearGradient>
				<path style="opacity:0.65;fill:url(#SVGID_00000013164422645473640910000005667631183496707253_);" d="M1700.815,3029.168
					c6.398,1.592,12.368,1.529,17.984,0.102c5.094-1.293,8.591-6.006,8.591-11.263l-0.001-180.56h-35.607v180.346
					C1691.782,3023.212,1695.558,3027.86,1700.815,3029.168z"/>
				<g>
					
						<linearGradient id="SVGID_00000152952456561826231530000012136691451166239125_" gradientUnits="userSpaceOnUse" x1="-1021.2474" y1="2896.0359" x2="-1086.5302" y2="2810.9705" gradientTransform="matrix(-1 0 0 1 511.5771 0)">
						<stop  offset="0" style="stop-color:#311944"/>
						<stop  offset="1" style="stop-color:#893976"/>
					</linearGradient>
					<path style="fill:url(#SVGID_00000152952456561826231530000012136691451166239125_);" d="M1897.729,2761.457l-54.396-34.386
						c-2.263-12.845-27.903-147.225-131.999-189.423c-42.332-17.16-87.888-15.124-112.888-14.007
						c-49.908,2.229-85.507,3.819-102.628,27.625c-21.986,30.569,14.889,58.291,7.254,145.731
						c-3.114,35.658-11.032,51.495-1.169,75.117c11.815,28.297,39.214,43.982,60.517,52.811
						c25.465,14.788,69.805,35.86,128.367,40.992c98.644,8.645,172.287-33.67,197.612-49.86
						c11.261-3.551,19.723-12.915,22.117-24.477C1912.943,2779.857,1907.848,2767.854,1897.729,2761.457z"/>
				</g>
				<path style="opacity:0.26;fill:#FFFFFF;" d="M1872.717,2785.943c-2.01-12.091-35.71-2.068-67.588-25.748
					c-47.652-35.397-22.92-95.357-64.37-152.878c-38.04-52.788-114.621-79.654-138.395-59.542
					c-31.645,26.772,45.804,126.894,0,191.5c-22.25,31.383-56.148,29.872-56.323,48.277c-0.277,29.086,84.091,62.619,164.142,61.151
					C1796.244,2847.126,1875.908,2805.135,1872.717,2785.943z"/>
			</g>
			<g>
				<g>
					<g>
						<path style="fill:#BFC8D6;" d="M2668.158,2515.887l-351.521-2.616v7.74c0,2.101,1.533,3.887,3.61,4.205l99.4,15.241
							c1.18,0.181,2.376,0.229,3.566,0.143l241.126-17.377c2.153-0.155,3.82-1.947,3.82-4.105V2515.887z"/>
						<g>
							<path style="fill:#BFC8D6;" d="M2540.593,2503.094l-220.321,14.159c-3.942,0.253-7.148-2.439-7.148-6.014V2368.01
								c0-3.575,3.206-6.473,7.148-6.473h220.321c3.248,0,5.875,2.62,5.875,5.852v129.476
								C2546.467,2500.096,2543.841,2502.885,2540.593,2503.094z"/>
							<path style="fill:#D8DEE8;" d="M2544.106,2503.094l-220.321,14.159c-3.943,0.253-7.148-2.439-7.148-6.014V2368.01
								c0-3.575,3.205-6.473,7.148-6.473h220.321c3.248,0,5.874,2.62,5.874,5.852v129.476
								C2549.98,2500.096,2547.354,2502.885,2544.106,2503.094z"/>
							
								<linearGradient id="SVGID_00000147938357905320377090000018078758277220725179_" gradientUnits="userSpaceOnUse" x1="2326.2207" y1="2438.0647" x2="2542.0889" y2="2438.0647">
								<stop  offset="0" style="stop-color:#FF9085"/>
								<stop  offset="1" style="stop-color:#FB6FBB"/>
							</linearGradient>
							<path style="fill:url(#SVGID_00000147938357905320377090000018078758277220725179_);" d="M2537.242,2493.966l-205.206,12.299
								c-3.209,0.192-5.816-2.018-5.816-4.936v-125.397c0-2.918,2.607-5.294,5.816-5.306l205.206-0.772
								c2.679-0.01,4.847,2.136,4.847,4.795v114.214C2542.089,2491.52,2539.921,2493.805,2537.242,2493.966z"/>
							<path style="fill:#FFFFFF;" d="M2441.727,2365.455c0,1.331-1.135,2.413-2.535,2.417c-1.402,0.004-2.54-1.074-2.54-2.408
								s1.138-2.416,2.54-2.417C2440.592,2363.046,2441.727,2364.124,2441.727,2365.455z"/>
							<path style="opacity:0.48;fill:#FFFFFF;" d="M2491.916,2463.881c-17.072-8.316-30.495,2.221-43.45-8.175
								c-7.854-6.303-3.998-11.003-13.662-20.423c-10.703-10.433-17.672-6.926-28.429-16.316
								c-13.602-11.872-6.799-21.109-18.515-29.633c-14.213-10.341-29.541-0.77-43.071-10.687
								c-5.835-4.277-9.038-10.496-10.709-17.109h-13.238c-2.32,0-4.204,1.702-4.204,3.802v148.57c0,2.1,1.884,3.681,4.204,3.532
								l225.692-14.504c1.108-0.071,2.09-0.656,2.72-1.505c-16.521-0.545-26.671-5.56-33.159-10.743
								C2503.401,2480.549,2505.603,2470.548,2491.916,2463.881z"/>
						</g>
						<path style="fill:#FFFFFF;" d="M2552.887,2502.698l-236.25,14.903l103.01,15.794c1.18,0.181,2.376,0.229,3.566,0.143
							l244.946-17.652l-111.513-13.087C2555.398,2502.653,2554.14,2502.619,2552.887,2502.698z"/>
						<polygon style="opacity:0.47;fill:#D8DEE8;" points="2351.11,2517.73 2547.795,2505.137 2608.667,2512.224 2413.676,2525.685 
													"/>
					</g>
				</g>
				
					<linearGradient id="SVGID_00000030483520490425540910000002600542910513274778_" gradientUnits="userSpaceOnUse" x1="3199.4832" y1="2895.1509" x2="3211.0374" y2="3042.2031" gradientTransform="matrix(1 0 0 1 -626.2627 0)">
					<stop  offset="0.0036" style="stop-color:#26264F"/>
					<stop  offset="1" style="stop-color:#444B8C"/>
				</linearGradient>
				<path style="fill:url(#SVGID_00000030483520490425540910000002600542910513274778_);" d="M2597.635,2968.341
					c0,0-51.674,3.591-52.433,6.965c-0.76,3.375,35.074,16.417,47.594,16.903c12.521,0.487,22.821-3.214,21.687-8.516
					c-1.133-5.304-5.516-18.643-5.516-18.643L2597.635,2968.341z"/>
				
					<linearGradient id="SVGID_00000142860723757788412590000000023539269405094551_" gradientUnits="userSpaceOnUse" x1="2268.5598" y1="2663.8267" x2="2266.1338" y2="2487.9409" gradientTransform="matrix(0.9853 0.171 -0.171 0.9853 820.6597 -36.2046)">
					<stop  offset="0" style="stop-color:#FFC444"/>
					<stop  offset="0.9964" style="stop-color:#F36F56"/>
				</linearGradient>
				<path style="fill:url(#SVGID_00000142860723757788412590000000023539269405094551_);" d="M2595.194,2945.382l-0.917,24.387
					c0,0,7.861,4.437,14.101,1.888l6.938-25.717L2595.194,2945.382z"/>
				
					<linearGradient id="SVGID_00000115499774732784801250000007355070415648009120_" gradientUnits="userSpaceOnUse" x1="3054.9685" y1="2885.3167" x2="3066.5225" y2="3032.3694" gradientTransform="matrix(1 0 0 1 -626.2627 0)">
					<stop  offset="0.0036" style="stop-color:#26264F"/>
					<stop  offset="1" style="stop-color:#444B8C"/>
				</linearGradient>
				<path style="fill:url(#SVGID_00000115499774732784801250000007355070415648009120_);" d="M2453.12,2958.507
					c0,0-51.674,3.591-52.433,6.965c-0.76,3.375,35.074,16.417,47.594,16.903c12.521,0.487,22.821-3.214,21.688-8.517
					c-1.134-5.304-5.516-18.643-5.516-18.643L2453.12,2958.507z"/>
				
					<linearGradient id="SVGID_00000157274120319852352830000013516905077410802587_" gradientUnits="userSpaceOnUse" x1="2124.4956" y1="2678.8481" x2="2122.0698" y2="2502.9636" gradientTransform="matrix(0.9853 0.171 -0.171 0.9853 820.6597 -36.2046)">
					<stop  offset="0" style="stop-color:#FFC444"/>
					<stop  offset="0.9964" style="stop-color:#F36F56"/>
				</linearGradient>
				<path style="fill:url(#SVGID_00000157274120319852352830000013516905077410802587_);" d="M2450.678,2935.548l-0.917,24.387
					c0,0,7.86,4.437,14.101,1.888l6.938-25.717L2450.678,2935.548z"/>
				
					<linearGradient id="SVGID_00000143617409833048254590000013598770325033386431_" gradientUnits="userSpaceOnUse" x1="2860.7883" y1="2582.8904" x2="2794.8093" y2="2681.054">
					<stop  offset="0" style="stop-color:#893976"/>
					<stop  offset="1" style="stop-color:#311944"/>
				</linearGradient>
				<path style="fill:url(#SVGID_00000143617409833048254590000013598770325033386431_);" d="M2589.703,2948.829
					c9.656,1.072,19.311,2.147,28.967,3.219c13.041-14.455,32.509-39.659,42.913-75.097c20.059-68.324-8.991-117.56,9.656-129.814
					c26.393-17.344,83.594,82.508,175.411,79.943c37.672-1.053,86.844-19.502,105.743-59.683
					c2.854-6.066,16.866-37.821,3.219-67.588c-14.091-30.736-83.993-44.11-223.222-69.609
					c-59.764-10.944-89.942-16.404-102.068-10.614C2544.39,2660.608,2580.224,2892.568,2589.703,2948.829z"/>
				
					<linearGradient id="SVGID_00000083062210755540268590000000702882361517175704_" gradientUnits="userSpaceOnUse" x1="2442.2644" y1="2799.031" x2="2915.7717" y2="2799.031">
					<stop  offset="0" style="stop-color:#893976"/>
					<stop  offset="1" style="stop-color:#311944"/>
				</linearGradient>
				<path style="fill:url(#SVGID_00000083062210755540268590000000702882361517175704_);" d="M2442.279,2949.24
					c9.987,1.738,19.975,3.476,29.962,5.214c12.131-17.868,30.49-45.863,51.021-81.386c42.797-74.05,42.015-89.09,61.794-98.623
					c41.861-20.172,73.489,34.325,177.016,49.352c33.866,4.916,109.047,15.832,139.467-24.676
					c12.332-16.422,19.416-44.1,9.656-67.588c-17.497-42.107-75.129-37.05-264.988-74.025
					c-74.041-14.42-84.135-16.991-102.068-10.614C2443.977,2682.512,2442.026,2900.599,2442.279,2949.24z"/>
				
					<linearGradient id="SVGID_00000026846471364981536940000010698902555859665281_" gradientUnits="userSpaceOnUse" x1="2695.4626" y1="2443.6875" x2="2906.2227" y2="2644.9392">
					<stop  offset="0" style="stop-color:#FF9085"/>
					<stop  offset="1" style="stop-color:#FB6FBB"/>
				</linearGradient>
				<path style="fill:url(#SVGID_00000026846471364981536940000010698902555859665281_);" d="M2649.698,2369.364
					c9.856-24.104,31.013-37.965,41.983-45.153c5.491-3.599,10.563-6.295,15.714-8.398c39.729-16.221,79.396-15.105,86.473-14.574
					c17.158,1.285,59.538,4.457,90.936,31.663c15.198,13.169,27.346,31.553,45.059,135.176
					c24.703,144.517,4.653,129.704,24.138,188.281c10.311,30.997,26.374,66.56,9.384,89.272
					c-5.488,7.336-13.328,9.442-29.309,16.633c-59.701,26.864-113.227,22.234-145.754,19.012
					c-35.792-3.545-53.881-5.573-63.371-18.22c-15.159-20.201,0.446-45.873,3.168-90.303c1.955-31.899-5.298-57.178-19.804-107.731
					C2674.594,2447.494,2630.814,2415.538,2649.698,2369.364z"/>
				
					<linearGradient id="SVGID_00000108291251369296378020000018131588034794221499_" gradientUnits="userSpaceOnUse" x1="2443.4377" y1="2506.9561" x2="2438.6333" y2="2528.8892">
					<stop  offset="0" style="stop-color:#FFC444"/>
					<stop  offset="0.9964" style="stop-color:#F36F56"/>
				</linearGradient>
				<path style="fill:url(#SVGID_00000108291251369296378020000018131588034794221499_);" d="M2481.481,2513.271l-38.147-7.336
					c-2.741-0.527-5.553-0.555-8.304-0.082l-32.998,5.674c0,0,21.456,8.631,39.695,5.925c18.238-2.706,38.162,7.555,38.162,7.555
					L2481.481,2513.271z"/>
				<g>
					<g>
						
							<linearGradient id="SVGID_00000056413051394057997930000010050664184752349352_" gradientUnits="userSpaceOnUse" x1="6089.8037" y1="1620.8146" x2="6221.2466" y2="1786.1865" gradientTransform="matrix(0.9663 0.2576 -0.2576 0.9663 -2744.3408 -923.8408)">
							<stop  offset="0" style="stop-color:#FFC444"/>
							<stop  offset="0.9964" style="stop-color:#F36F56"/>
						</linearGradient>
						<path style="fill:url(#SVGID_00000056413051394057997930000010050664184752349352_);" d="M2734.084,2274.521
							c-6.415-9.693,3.188-28.341,6.986-35.717c0.131-0.255,0.298-0.588,0.656-1.248c5.835-10.765,7.33-12.236,10.114-14.1
							l3.87-2.389c0,0,0.224-0.088,0.46-0.172c2.483-0.883,10.948-1.141,12.663-0.773c5.478,1.169,11.31,23.485,9.646,55.035
							c0.227,1.204,0.446,2.417,0.658,3.639c0.863,4.982,1.548,9.866,2.078,14.64c0.507,4.567,6.983,4.463,11.57,4.171
							c18.615-1.188,27.725,0.396,28.517,3.168c1.484,5.196-20.596,22.18-47.86,25.999c-36.59,0.273-66.355-3.624-63.156-9.385
							c1.421-2.559,29.771-9.966,37.744-17.309c7.301-6.723,6.706-13.663,7.306-18.632
							C2751.561,2281.65,2738.976,2281.914,2734.084,2274.521z"/>
						<path style="fill:#26264F;" d="M2744.356,2212.107c-3.008,6.635,4.29,19.958,6.985,21.892c0.302,0.217,2.008,1.562,3.54,3.866
							c0.209,0.314,0.393,0.682,0.557,1.156c2.141,6.16-7.653,13.409-5.762,16.165c1.371,2.002,8.027-0.672,8.819,1.053
							c0.746,1.628-4.786,4.994-3.939,6.94c0.639,1.471,4.044,0.126,6.191,2.379c1.659,1.741,1.852,4.208,1.89,5.44
							c0.266,8.757-19.592,40.382-23.729,54.652c-4.388,15.134,3.461,29.538,31.969,69.342c40.551,56.619,60.827,84.928,72.1,93.022
							c55.093,39.549,119.875,34.702,146.441,30.575c31.915-4.957,97.849-15.2,119.084-65.979
							c24.408-58.37-23.648-138.244-72.952-151.806c-22.547-6.201-34.552,3.218-63.833-6.971
							c-32.339-11.255-28.421-31.154-58.362-42.906c-39.933-15.675-65.7,12.346-92.906-8.056
							c-14.805-11.104-12.364-23.293-30.575-32.185C2771.904,2201.914,2748.299,2203.41,2744.356,2212.107z"/>
						
							<linearGradient id="SVGID_00000103982420494379059840000001133318879030737845_" gradientUnits="userSpaceOnUse" x1="6096.0957" y1="1612.4919" x2="6242.8516" y2="1797.1299" gradientTransform="matrix(0.9663 0.2576 -0.2576 0.9663 -2744.3408 -923.8408)">
							<stop  offset="0" style="stop-color:#FFC444"/>
							<stop  offset="0.9964" style="stop-color:#F36F56"/>
						</linearGradient>
						<path style="fill:url(#SVGID_00000103982420494379059840000001133318879030737845_);" d="M2753.189,2252.889
							c2.396-3.292,6.606-0.199,6.63,4.06c0.025,4.259-4.102,8.687-8.105,7.846
							C2747.71,2263.955,2749.965,2257.32,2753.189,2252.889z"/>
					</g>
				</g>
				
					<linearGradient id="SVGID_00000096040362856983707190000014412663381622946741_" gradientUnits="userSpaceOnUse" x1="2637.792" y1="2504.0515" x2="2848.5015" y2="2705.2551">
					<stop  offset="0" style="stop-color:#FF9085"/>
					<stop  offset="1" style="stop-color:#FB6FBB"/>
				</linearGradient>
				<path style="opacity:0.3;fill:url(#SVGID_00000096040362856983707190000014412663381622946741_);" d="M2819.216,2739.292
					c-10.53-20.966,15.272-48.836-1.585-80.798c-14.316-27.146-40.323-21.065-52.281-45.944
					c-14.443-30.05,16.967-52.51,15.843-98.226c-1.345-54.652-48.37-109.36-76.045-104.563
					c-17.906,3.104-20.206,29.817-32.805,59.062c11.148,24.445,24.173,55.071,35.973,96.198
					c14.506,50.554,21.759,75.832,19.804,107.731c-2.723,44.432-18.328,70.104-3.168,90.304c9.49,12.646,27.58,14.676,63.371,18.219
					c32.526,3.22,86.053,7.851,145.754-19.011c7.557-3.4,13.214-5.947,17.828-8.46
					C2858.634,2767.812,2827.568,2755.922,2819.216,2739.292z"/>
				
					<linearGradient id="SVGID_00000083075282644493782800000010084054040441717149_" gradientUnits="userSpaceOnUse" x1="2647.2651" y1="2480.4492" x2="2886.2966" y2="2708.6973">
					<stop  offset="0" style="stop-color:#FF9085"/>
					<stop  offset="1" style="stop-color:#FB6FBB"/>
				</linearGradient>
				<path style="fill:url(#SVGID_00000083075282644493782800000010084054040441717149_);" d="M2471.766,2524.401
					c1.082-4.869,2.163-9.734,3.245-14.603c73.291,13.138,105.34-1.609,120.821-18.842c14.21-15.816,8.151-23.988,30.893-84.363
					c21.662-57.505,46.238-72.284,58.618-77.63c6.915-2.986,11.689-4.966,17.427-3.564c26.404,6.453,35.133,75.26,27.725,126.744
					c-4.174,29.004-12.359,85.881-59.015,112.88c-0.858,0.497-2.216,1.282-4.009,2.241c-5.875,3.143-29.221,14.37-75.205,6.076
					C2538.05,2563.557,2485.156,2532.485,2471.766,2524.401z"/>
			</g>
			<g>
				<ellipse style="fill:#B7C0CE;" cx="2856.583" cy="3069.543" rx="160.129" ry="65.353"/>
				
					<linearGradient id="SVGID_00000118377062075208095250000010411223257856315569_" gradientUnits="userSpaceOnUse" x1="2696.4536" y1="3047.8157" x2="3016.7117" y2="3047.8157">
					<stop  offset="0" style="stop-color:#AA80F9"/>
					<stop  offset="0.9964" style="stop-color:#6165D7"/>
				</linearGradient>
				<path style="fill:url(#SVGID_00000118377062075208095250000010411223257856315569_);" d="M3016.712,3061.879
					c0,34.071-71.692,61.691-160.129,61.691c-88.438,0-160.129-27.62-160.129-61.691c0-34.07,71.692-89.819,160.129-89.819
					C2945.02,2972.061,3016.712,3027.809,3016.712,3061.879z"/>
				
					<linearGradient id="SVGID_00000034782356962462336760000010223401262152978311_" gradientUnits="userSpaceOnUse" x1="2821.9404" y1="3032.1064" x2="3091.041" y2="3032.1064" gradientTransform="matrix(1 0 0 1 -74.3293 0)">
					<stop  offset="0" style="stop-color:#AA80F9"/>
					<stop  offset="0.9964" style="stop-color:#6165D7"/>
				</linearGradient>
				<path style="opacity:0.3;fill:url(#SVGID_00000034782356962462336760000010223401262152978311_);" d="M3016.712,3061.879
					c0-34.071-71.692-89.819-160.129-89.819c-40.834,0-78.077,11.897-106.363,28.046c-1.98,4.148-2.902,8.272-2.527,12.188
					c1.836,19.169,33.101,30.955,51.047,34.841c45.193,9.789,67.262-17.236,104.524-16.206c23.037,0.636,54.961,12.21,92.826,61.223
					C3009.198,3083.208,3016.712,3072.885,3016.712,3061.879z"/>
				<path style="fill:#FFFFFF;" d="M2865.353,3003.007c-6.398,1.593-12.367,1.529-17.983,0.102
					c-5.094-1.293-8.591-6.006-8.591-11.263l0-180.56h35.607v180.346C2874.386,2997.051,2870.611,3001.699,2865.353,3003.007z"/>
				
					<linearGradient id="SVGID_00000045583526205965079420000013682900562534777990_" gradientUnits="userSpaceOnUse" x1="2913.1082" y1="2907.7388" x2="2948.7156" y2="2907.7388" gradientTransform="matrix(1 0 0 1 -74.3293 0)">
					<stop  offset="0" style="stop-color:#AA80F9"/>
					<stop  offset="0.9964" style="stop-color:#6165D7"/>
				</linearGradient>
				<path style="opacity:0.65;fill:url(#SVGID_00000045583526205965079420000013682900562534777990_);" d="M2865.353,3003.007
					c-6.398,1.593-12.367,1.529-17.983,0.102c-5.094-1.293-8.591-6.006-8.591-11.263l0-180.56h35.607v180.346
					C2874.386,2997.051,2870.611,3001.699,2865.353,3003.007z"/>
				<g>
					
						<linearGradient id="SVGID_00000083058238059088144750000000364095747097744785_" gradientUnits="userSpaceOnUse" x1="3107.6733" y1="2869.875" x2="3042.3906" y2="2784.8093" gradientTransform="matrix(1 0 0 1 -74.3293 0)">
						<stop  offset="0" style="stop-color:#311944"/>
						<stop  offset="1" style="stop-color:#893976"/>
					</linearGradient>
					<path style="fill:url(#SVGID_00000083058238059088144750000000364095747097744785_);" d="M2668.44,2735.296l54.396-34.386
						c2.263-12.845,27.903-147.225,131.999-189.423c42.332-17.16,87.888-15.124,112.888-14.007
						c49.907,2.229,85.507,3.819,102.628,27.625c21.986,30.569-14.889,58.291-7.253,145.731
						c3.113,35.658,11.032,51.495,1.169,75.117c-11.815,28.297-39.214,43.982-60.517,52.811
						c-25.466,14.788-69.805,35.86-128.367,40.992c-98.645,8.645-172.287-33.67-197.612-49.86
						c-11.261-3.551-19.723-12.915-22.117-24.477C2653.226,2753.696,2658.32,2741.694,2668.44,2735.296z"/>
				</g>
				<path style="opacity:0.26;fill:#FFFFFF;" d="M2693.451,2759.782c2.011-12.091,35.71-2.068,67.588-25.748
					c47.652-35.397,22.92-95.357,64.37-152.878c38.04-52.788,114.622-79.654,138.395-59.542c31.645,26.772-45.804,126.894,0,191.5
					c22.25,31.384,56.148,29.872,56.323,48.277c0.277,29.086-84.092,62.619-164.143,61.151
					C2769.925,2820.965,2690.26,2778.974,2693.451,2759.782z"/>
			</g>
		</g>
		<g>
			<g>
				
					<linearGradient id="SVGID_00000057856879534457405920000002539478014056589743_" gradientUnits="userSpaceOnUse" x1="1574.7314" y1="3435.1812" x2="1109.0172" y2="2817.1304">
					<stop  offset="0.0036" style="stop-color:#F36F56"/>
					<stop  offset="1" style="stop-color:#FFC444"/>
				</linearGradient>
				<path style="fill:url(#SVGID_00000057856879534457405920000002539478014056589743_);" d="M1226.829,3079.275
					c20.979-1.664,47.818-7.494,73.579-24.336c27.872-18.222,64.174-55.669,54.698-79.266c-3.537-8.81-13.722-16.353-22.675-15.634
					c-13.226,1.062-14.766,19.434-37.734,39.417c-4.245,3.693-26.19,22.787-37.1,16.354c-5.424-3.199-7.028-12.062-6.143-18.801
					c2.586-19.704,26.644-22.729,49.771-44.06c23.448-21.626,42.993-59.351,31.821-84.855c-6.42-14.657-23.403-26.232-34.567-22.979
					c-4.771,1.39-7.795,5.29-22.281,36.584c-11.889,25.685-14.533,33.172-22.198,35.607c-7.89,2.507-20.156-0.639-24.819-8.412
					c-12.142-20.244,40.337-50.135,45.103-106.79c2.136-25.389-4.733-63.019-27.725-71.085
					c-15.543-5.453-37.687,2.875-45.692,17.134c-7.216,12.854,1.55,22.526-3.955,51.403c-1.671,8.763-5.108,26.795-12.363,27.741
					c-8.517,1.111-18.047-21.882-20.249-27.481c-16.582-42.157,2.432-63.835-13.203-84.299
					c-12.192-15.958-38.721-22.367-59.736-14.307c-18.39,7.053-33.102,25.395-34.084,44.404c-1,19.34,15.266,38.593,47.798,77.098
					c15.428,18.26,27.702,30.597,27.004,48.747c-0.34,8.848-3.849,21.293-10.186,22.429c-13.987,2.509-20.871-53.812-54.02-62.51
					c-16.967-4.452-38.052,4.298-47.317,19.592c-11.352,18.739-3.746,45.3,10.515,59.266c18.608,18.222,37.69,4.374,72.702,23.947
					c15.532,8.683,39.942,27.154,36.367,42.428c-1.556,6.65-8.526,13.163-16.177,14.031c-17.148,1.946-22.811-26.156-50.38-38.51
					c-19.862-8.9-47.327-7.938-53.851,3.264c-9.21,15.813,23.501,51.715,40.893,67.579
					C1081.65,3042.153,1131.233,3078.52,1226.829,3079.275z"/>
				<g style="opacity:0.5;">
					<path style="fill:#FFFFFF;" d="M1218.128,3070.308c2.779-47.118-28.4-143.034-51.085-188.365
						c-22.134-44.229-43.32-114.236-43.531-114.938l-2.761,0.83c0.213,0.705,21.469,70.946,43.714,115.397
						c22.545,45.049,53.538,140.257,50.787,186.906L1218.128,3070.308z"/>
				</g>
			</g>
			
				<linearGradient id="SVGID_00000122698984715902680060000016304294856772389530_" gradientUnits="userSpaceOnUse" x1="1078.0253" y1="3676.416" x2="1237.9703" y2="2935.4453">
				<stop  offset="0" style="stop-color:#311944"/>
				<stop  offset="1" style="stop-color:#A03976"/>
			</linearGradient>
			<path style="fill:url(#SVGID_00000122698984715902680060000016304294856772389530_);" d="M1276.277,3085.404
				c15.797-21.932,38.969-61.503,43.124-114.446c1.712-21.815,5.057-64.423-21.009-101.177
				c-12.991-18.319-40.542-45.411-59.158-37.596c-11.978,5.029-19.414,24.156-16.033,38.701
				c3.408,14.666,15.804,16.025,29.302,40.913c4.995,9.209,10.701,20.02,6.318,26.127c-3.661,5.101-13.72,6.029-21.261,2.97
				c-15.578-6.319-10.71-25.714-27.551-39.625c-11.975-9.892-31.938-14.542-40.552-6.44c-7.48,7.035-6.177,23.469,0.433,34.424
				c10.583,17.542,29.561,12.396,41.933,31.573c5.489,8.508,9.391,21.359,4.587,26.439c-5.474,5.789-21.583,0.783-31.907-5.617
				c-13.631-8.45-14.135-17.441-23.112-18.568c-10.013-1.257-22.531,8.279-24.489,18.828c-2.742,14.776,15.386,30.711,29.74,37.635
				c18.377,8.864,32.032,3.661,41.007,15.771c3.294,4.444,6.312,11.698,3.61,16.101c-3.854,6.28-17.783,4.207-27.031,2.83
				c-22.508-3.351-28.705-11.513-36.77-7.547c-8.166,4.015-12.377,17.577-8.846,27.091c1.963,5.287,7.858,13.477,37.072,18.605
				C1196.131,3095.987,1230.486,3098.512,1276.277,3085.404z"/>
		</g>
	</g>
</g>
</svg>
