<?xml version="1.0" encoding="utf-8"?>
<!-- Generator: Adobe Illustrator 27.5.0, SVG Export Plug-In . SVG Version: 6.00 Build 0)  -->
<svg version="1.1" xmlns="http://www.w3.org/2000/svg" xmlns:xlink="http://www.w3.org/1999/xlink" x="0px" y="0px"
	 viewBox="0 0 750 500" style="enable-background:new 0 0 750 500;" xml:space="preserve">
<g id="BACKGROUND">
	<rect x="125" style="fill:#FFFFFF;" width="500" height="500"/>
</g>
<g id="OBJECTS">
	<circle style="fill:#DB4800;" cx="480.19" cy="75.432" r="26.542"/>
	<g>
		<path style="fill:#A6BBFF;" d="M219.938,424.25H102.935c-6.6,0-12-5.4-12-12V143.064c0-6.6,5.4-12,12-12h117.003
			c6.6,0,12,5.4,12,12V412.25C231.938,418.85,226.538,424.25,219.938,424.25z"/>
		<rect x="103.286" y="152.967" style="fill:#0B29B9;" width="116.301" height="249.38"/>
		<circle style="fill:#E1F0FF;" cx="165.006" cy="412.648" r="5.801"/>
		<line style="fill:none;stroke:#FFFFFF;stroke-miterlimit:10;" x1="147.523" y1="142.976" x2="178.615" y2="142.976"/>
		<g>
			<path style="fill:#FFFFFF;" d="M183.791,144.538h-0.089c-0.835,0-1.517-0.683-1.517-1.517v-0.089
				c0-0.835,0.683-1.517,1.517-1.517h0.089c0.835,0,1.517,0.683,1.517,1.517v0.089C185.309,143.855,184.626,144.538,183.791,144.538
				z"/>
		</g>
	</g>
	<g>
		<path style="fill:#A6BBFF;" d="M660.772,424.25H543.77c-6.6,0-12-5.4-12-12V143.064c0-6.6,5.4-12,12-12h117.003
			c6.6,0,12,5.4,12,12V412.25C672.772,418.85,667.372,424.25,660.772,424.25z"/>
		<rect x="544.121" y="152.967" style="fill:#0B29B9;" width="116.301" height="249.38"/>
		<circle style="fill:#E1F0FF;" cx="605.841" cy="412.648" r="5.801"/>
		<line style="fill:none;stroke:#FFFFFF;stroke-miterlimit:10;" x1="588.357" y1="142.976" x2="619.45" y2="142.976"/>
		<g>
			<path style="fill:#FFFFFF;" d="M624.626,144.538h-0.089c-0.835,0-1.517-0.683-1.517-1.517v-0.089
				c0-0.835,0.683-1.517,1.517-1.517h0.089c0.835,0,1.517,0.683,1.517,1.517v0.089C626.143,143.855,625.461,144.538,624.626,144.538
				z"/>
		</g>
	</g>
	<path style="fill:none;stroke:#0B29B9;stroke-miterlimit:10;" d="M511.215,424.135c-1.344-8.828-2.635-40.77-12.205-43.596
		c-10.652-3.145-10.912,17.056-19.597,15.531c-12.274-2.156-12.098,15.446-16.484,13.662c-17.987-7.312-32.984,14.402-32.984,14.402
		H511.215z"/>
	<g>
		<path style="fill:#FFFFFF;stroke:#0B29B9;stroke-miterlimit:10;" d="M496.214,424.032l12.729-51.693
			c0.872-3.541,4.236-5.885,7.86-5.476l0,0c3.828,0.432,6.652,3.78,6.432,7.626l-2.99,49.634L496.214,424.032z"/>
		<line style="fill:none;stroke:#0B29B9;stroke-miterlimit:10;" x1="516.967" y1="367.332" x2="507.478" y2="424.075"/>
		<path style="fill:none;stroke:#0B29B9;stroke-miterlimit:10;" d="M507.525,378.099c0,0,2.039,9.994,5.424,13.259"/>
		<path style="fill:none;stroke:#0B29B9;stroke-miterlimit:10;" d="M521.997,395.053c0,0-6.038,9.752-10.902,9.21"/>
		<path style="fill:none;stroke:#0B29B9;stroke-miterlimit:10;" d="M500.604,406.204c0,0,3.264,8.057,8.131,10.349"/>
		<path style="fill:none;stroke:#0B29B9;stroke-miterlimit:10;" d="M522.928,371.962c0,0-3.921,9.249-7.65,8.056"/>
	</g>
	<g>
		<path style="fill:#FFFFFF;stroke:#0B29B9;stroke-miterlimit:10;" d="M354.159,424.135c0,0-2.927-30.767,11.451-30.866
			c11.451-0.079,17.177,23.437,17.177,23.437s9.161-6.423,17.864-3.055c8.618,3.336,9.619,10.483,9.619,10.483H354.159z"/>
		<line style="fill:#FFFFFF;stroke:#0B29B9;stroke-miterlimit:10;" x1="365.152" y1="400.368" x2="372.023" y2="424.135"/>
	</g>
	<path style="fill:#C3CAF4;" d="M367.221,364.666h110.143c0,0-12.913-18.45-32.283-13.248c0,0,0.399-11.464-10.644-12.765
		c-8.365-0.986-12.144,9.105-12.144,9.105s-2.542-11.718-16.142-11.706c-9.96,0.009-13.078,13.83-13.078,13.83
		S369.12,353.202,367.221,364.666z"/>
	<path style="fill:#C3CAF4;" d="M198.622,110.308h98.847c0,0-3.035-13.873-18.642-13.873c0,0-0.482-18.026-22.659-18.224
		c-13.398-0.119-18.9,15.987-18.9,15.987s-11.081-5.72-18.696-3.363s-6.362,11.905-6.362,11.905S197.755,100.77,198.622,110.308z"/>
	<path style="fill:#C3CAF4;" d="M447.375,107.184l94.788,0.346c0,0-6.383-16.128-24.585-9.062c0,0,1.421-11.038-9.156-12.917
		c-8.464-1.504-11.295,5.941-11.295,5.941s-7.81-12.159-16.302-7.737c-6.457,3.362-6.527,11.959-6.527,11.959
		S450.4,97.992,447.375,107.184z"/>
	<path style="fill:none;stroke:#0B29B9;stroke-miterlimit:10;" d="M325.902,424.135c0,0,0.978-19.487-9.832-23.112
		s-8.816-43.052-25.26-40.333s-28.651,55.288-48.334,63.445"/>
	<g>
		<path style="fill:#FFFFFF;stroke:#0B29B9;stroke-miterlimit:10;" d="M277.606,424.15l-6.28-48.356
			c-0.43-3.312-3.252-5.791-6.592-5.791l0,0c-3.529,0-6.443,2.757-6.637,6.281l-2.642,47.866H277.606z"/>
		<line style="fill:none;stroke:#0B29B9;stroke-miterlimit:10;" x1="264.525" y1="370.197" x2="267.409" y2="424.15"/>
		<path style="fill:none;stroke:#0B29B9;stroke-miterlimit:10;" d="M272.093,381.059c0,0-2.949,9.011-6.366,11.636"/>
		<path style="fill:none;stroke:#0B29B9;stroke-miterlimit:10;" d="M257.057,395.115c0,0,4.551,9.509,9.033,9.515"/>
		<path style="fill:none;stroke:#0B29B9;stroke-miterlimit:10;" d="M275.28,406.245c0,0-3.638,8.226-8.304,9.813"/>
		<path style="fill:none;stroke:#0B29B9;stroke-miterlimit:10;" d="M258.607,374.073c0,0,2.649,8.764,6.165,8.06"/>
	</g>
	<line style="fill:none;stroke:#0B29B9;stroke-miterlimit:10;" x1="683.252" y1="424.075" x2="66.748" y2="424.075"/>
	<g>
		<path style="fill:#F6DECD;" d="M261.676,302.496h-98.655c-2.216,0-4.085-1.65-4.36-3.849l-6.946-55.516
			c-0.328-2.623,1.717-4.94,4.36-4.94h112.547c2.643,0,4.689,2.317,4.36,4.94l-6.946,55.516
			C265.761,300.846,263.892,302.496,261.676,302.496z"/>
		<g>
			<path style="fill:#E1F0FF;" d="M261.855,226.938l-60.177,35.043c-3.645,2.122-8.363,0.877-10.485-2.768l-18.923-32.496
				c-2.122-3.645-0.877-8.363,2.768-10.485l60.177-35.043c3.645-2.122,8.363-0.877,10.485,2.768l18.923,32.496
				C266.745,220.097,265.5,224.816,261.855,226.938z"/>
			<g>
				<g>
					<line style="fill:none;stroke:#0B29B9;stroke-miterlimit:10;" x1="178.343" y1="220.741" x2="199.388" y2="256.881"/>
					<line style="fill:none;stroke:#0B29B9;stroke-miterlimit:10;" x1="188.203" y1="214.999" x2="209.249" y2="251.139"/>
					<line style="fill:none;stroke:#0B29B9;stroke-miterlimit:10;" x1="198.063" y1="209.257" x2="219.109" y2="245.397"/>
					<line style="fill:none;stroke:#0B29B9;stroke-miterlimit:10;" x1="207.924" y1="203.515" x2="228.969" y2="239.655"/>
					<line style="fill:none;stroke:#0B29B9;stroke-miterlimit:10;" x1="217.784" y1="197.773" x2="238.829" y2="233.913"/>
					<line style="fill:none;stroke:#0B29B9;stroke-miterlimit:10;" x1="227.644" y1="192.031" x2="248.69" y2="228.171"/>
					<line style="fill:none;stroke:#0B29B9;stroke-miterlimit:10;" x1="237.504" y1="186.289" x2="258.55" y2="222.429"/>
				</g>
			</g>
		</g>
		<path style="fill:#F6DECD;" d="M600.744,302.496H502.09c-2.216,0-4.085-1.65-4.36-3.849l-6.946-55.516
			c-0.328-2.623,1.717-4.94,4.36-4.94H607.69c2.643,0,4.688,2.317,4.36,4.94l-6.946,55.516
			C604.829,300.846,602.96,302.496,600.744,302.496z"/>
		<g>
			<path style="fill:#E1F0FF;" d="M501.852,226.938l60.177,35.043c3.645,2.122,8.363,0.877,10.485-2.768l18.923-32.496
				c2.122-3.645,0.877-8.363-2.768-10.485l-60.177-35.043c-3.645-2.122-8.363-0.877-10.485,2.768l-18.923,32.496
				C496.962,220.097,498.208,224.816,501.852,226.938z"/>
			<g>
				<g>
					<line style="fill:none;stroke:#0B29B9;stroke-miterlimit:10;" x1="585.365" y1="220.741" x2="564.319" y2="256.881"/>
					<line style="fill:none;stroke:#0B29B9;stroke-miterlimit:10;" x1="575.505" y1="214.999" x2="554.459" y2="251.139"/>
					<line style="fill:none;stroke:#0B29B9;stroke-miterlimit:10;" x1="565.644" y1="209.257" x2="544.599" y2="245.397"/>
					<line style="fill:none;stroke:#0B29B9;stroke-miterlimit:10;" x1="555.784" y1="203.515" x2="534.738" y2="239.655"/>
					<line style="fill:none;stroke:#0B29B9;stroke-miterlimit:10;" x1="545.924" y1="197.773" x2="524.878" y2="233.913"/>
					<line style="fill:none;stroke:#0B29B9;stroke-miterlimit:10;" x1="536.063" y1="192.031" x2="515.018" y2="228.171"/>
					<line style="fill:none;stroke:#0B29B9;stroke-miterlimit:10;" x1="526.203" y1="186.289" x2="505.158" y2="222.429"/>
				</g>
			</g>
		</g>
		<g>
			<path style="fill:#E1F0FF;" d="M418.179,212.78l-69.637-0.041c-4.217-0.003-7.666-3.455-7.664-7.673l0.022-37.604
				c0.003-4.217,3.455-7.666,7.673-7.664l69.637,0.041c4.217,0.003,7.666,3.455,7.664,7.673l-0.022,37.604
				C425.849,209.334,422.396,212.783,418.179,212.78z"/>
			<g>
				<g>
					<line style="fill:none;stroke:#0B29B9;stroke-miterlimit:10;" x1="349.157" y1="165.358" x2="349.132" y2="207.18"/>
					<line style="fill:none;stroke:#0B29B9;stroke-miterlimit:10;" x1="360.568" y1="165.365" x2="360.543" y2="207.186"/>
					<line style="fill:none;stroke:#0B29B9;stroke-miterlimit:10;" x1="371.978" y1="165.372" x2="371.953" y2="207.193"/>
					<line style="fill:none;stroke:#0B29B9;stroke-miterlimit:10;" x1="383.388" y1="165.379" x2="383.363" y2="207.2"/>
					<line style="fill:none;stroke:#0B29B9;stroke-miterlimit:10;" x1="394.799" y1="165.386" x2="394.774" y2="207.207"/>
					<line style="fill:none;stroke:#0B29B9;stroke-miterlimit:10;" x1="406.209" y1="165.392" x2="406.184" y2="207.214"/>
					<line style="fill:none;stroke:#0B29B9;stroke-miterlimit:10;" x1="417.619" y1="165.399" x2="417.594" y2="207.22"/>
				</g>
			</g>
		</g>
		<g>
			
				<line style="fill:none;stroke:#0B29B9;stroke-width:4;stroke-linecap:round;stroke-linejoin:round;stroke-miterlimit:10;" x1="432.267" y1="296.121" x2="331.82" y2="296.121"/>
			
				<line style="fill:none;stroke:#0B29B9;stroke-width:4;stroke-linecap:round;stroke-linejoin:round;stroke-miterlimit:10;" x1="347.471" y1="308.594" x2="331.441" y2="296.121"/>
			
				<line style="fill:none;stroke:#0B29B9;stroke-width:4;stroke-linecap:round;stroke-linejoin:round;stroke-miterlimit:10;" x1="331.441" y1="296.121" x2="347.471" y2="283.648"/>
		</g>
		<g>
			
				<line style="fill:none;stroke:#0B29B9;stroke-width:4;stroke-linecap:round;stroke-linejoin:round;stroke-miterlimit:10;" x1="331.441" y1="260.153" x2="431.887" y2="260.153"/>
			
				<line style="fill:none;stroke:#0B29B9;stroke-width:4;stroke-linecap:round;stroke-linejoin:round;stroke-miterlimit:10;" x1="416.237" y1="247.68" x2="432.267" y2="260.153"/>
			
				<line style="fill:none;stroke:#0B29B9;stroke-width:4;stroke-linecap:round;stroke-linejoin:round;stroke-miterlimit:10;" x1="432.267" y1="260.153" x2="416.237" y2="272.625"/>
		</g>
		<path style="fill:#DB4800;" d="M172.02,251.814v-0.635c0-2.427-1.967-4.394-4.394-4.394h-18.827c-2.57,0-4.591,2.196-4.379,4.757
			l5.371,64.94c0.188,2.279,2.093,4.032,4.379,4.032h116.408c2.266,0,4.161-1.723,4.375-3.979l5.264-55.516
			c0.245-2.579-1.784-4.809-4.375-4.809h-99.427C173.987,256.208,172.02,254.241,172.02,251.814z"/>
		<path style="fill:#DB4800;" d="M511.088,251.814v-0.635c0-2.427-1.967-4.394-4.394-4.394h-18.827c-2.57,0-4.591,2.196-4.379,4.757
			l5.371,64.94c0.188,2.279,2.093,4.032,4.379,4.032h116.408c2.266,0,4.161-1.723,4.375-3.979l5.264-55.516
			c0.245-2.579-1.784-4.809-4.375-4.809h-99.427C513.056,256.208,511.088,254.241,511.088,251.814z"/>
		<path style="fill:#B73400;" d="M169.822,255.77c0,0-3.577-2.384-12.681-2.601s-12.052,6.473-12.052,6.473
			s7.42,14.536,23.108,12.441c13.006-1.738,15.079-15.874,15.079-15.874L169.822,255.77z"/>
	</g>
	<g>
		<path style="fill:#252639;" d="M75.331,419.309h3.442c0.385,0,0.763,0.086,1.106,0.261c0.728,0.37,2.239,1.048,4.232,1.446
			c2.517,0.503,7.261-1.475,10.348,1.834c0.56,0.6,0.156,1.58-0.664,1.58l-19.601,0L75.331,419.309z"/>
		<path style="fill:#F6DECD;" d="M89.963,334.2c-0.697,2.859-0.856,7.872-0.835,12.96c0.027,6.774,0.371,13.681,0.185,15.816
			c-0.325,3.739-9.43,12.356-10.242,19.834c-0.813,7.479-3.739,35.604-3.739,36.905c0,1.301,3.252,0.488,3.739,0
			c0.375-0.375,22.43-49.646,32.645-72.493c3.086-6.903,5.094-11.397,5.094-11.397L89.963,334.2z"/>
		<path style="fill:#F6DECD;" d="M112.447,334.676c0.154,2.939,1.442,7.786,2.924,12.654c1.972,6.48,4.286,12.997,4.722,15.096
			c0.763,3.675-5.482,14.544-4.112,21.941c1.37,7.397,6.648,35.178,7.022,36.423c0.374,1.246,3.255-0.467,3.582-1.074
			c0.251-0.466,7.219-53.997,10.44-78.816c0.973-7.499,1.604-12.38,1.604-12.38L112.447,334.676z"/>
		<path style="fill:#F6DECD;" d="M197.996,226.899c0,0,1.463-3.008,2.52-4.715c1.057-1.707,4.146-2.114,6.015-0.732
			s1.462,4.302-0.57,5.846c-2.032,1.544-5.608,2.77-5.608,2.77L197.996,226.899z"/>
		<polygon style="fill:#F6DECD;" points="113.564,202.066 111.509,196.822 108.335,227.793 118.008,227.793 118.008,222.926 
			118.008,213.405 		"/>
		<path style="fill:#DB4800;" d="M201.909,228.983l-2.758-2.677c-0.793-0.769-2.041-0.808-2.88-0.09l-26.404,22.611
			c-0.933,0.799-2.254,0.957-3.348,0.398c-6.63-3.386-29.452-15.044-33.473-17.124c-4.715-2.439-15.038-4.308-15.038-4.308h-10.746
			c-5.474,0-9.773,1.925-12.059,6.899c-1.727,3.759-2.835,8.08-2.768,14.304c0.163,15.12,3.218,29.765,3.218,29.765l-10.969,57.37
			c-0.326,1.707,0.857,3.339,2.582,3.547c4.469,0.541,13.603,1.402,27.083,1.513c14.608,0.12,26.924-2.583,32.399-4.015
			c1.668-0.436,2.62-2.181,2.095-3.823l-18.724-58.494l3.26-20.223l27.725,11.852c3.805,1.409,8.002,1.325,11.747-0.235
			c2.574-1.072,4.824-2.797,6.528-5.003l22.732-29.426C202.777,230.963,202.69,229.74,201.909,228.983z"/>
		<path style="fill:#F6DECD;" d="M119.595,216.494L119.595,216.494c-4.447,0-8.086-3.639-8.086-8.086v-10.002
			c0-4.447,3.639-8.086,8.086-8.086h0c4.447,0,8.086,3.639,8.086,8.086v10.002C127.681,212.855,124.042,216.494,119.595,216.494z"/>
		<path style="fill:#252639;" d="M123.688,417.659l1.486,0.075c0.806,0.041,1.591,0.288,2.26,0.738
			c0.959,0.644,2.553,1.572,4.229,1.946c2.683,0.598,5.771-0.052,7.479,0.517c0.838,0.279,1.872,1.127,2.708,1.918
			c0.601,0.569,0.207,1.578-0.621,1.578h-18.175c-0.932,0-1.634-0.848-1.46-1.764l0.753-3.954
			C122.469,418.076,123.041,417.626,123.688,417.659z"/>
		<path style="fill:#252639;" d="M128.934,200.101c0,0-4.825,6.614-11.711,5.314l-1.159,26.728H96.731
			c0,0-3.104-40.644,13.696-43.787C120.84,186.406,128.934,191.213,128.934,200.101z"/>
		<path style="fill:none;stroke:#FFFFFF;stroke-linecap:round;stroke-linejoin:round;stroke-miterlimit:10;" d="M97.312,278.91
			c0,0,16.908,3.252,31.621-2.601"/>
	</g>
	<g>
		<g>
			<g>
				
					<line style="fill:none;stroke:#A6BBFF;stroke-width:2;stroke-linecap:round;stroke-linejoin:round;" x1="251.652" y1="180.009" x2="251.652" y2="180.009"/>
				
					<path style="fill:none;stroke:#A6BBFF;stroke-width:2;stroke-linecap:round;stroke-linejoin:round;stroke-dasharray:0,9.6133;" d="
					M260.662,176.665c13.469-4.607,40.524-12.419,70.71-13.087"/>
				
					<line style="fill:none;stroke:#A6BBFF;stroke-width:2;stroke-linecap:round;stroke-linejoin:round;" x1="336.193" y1="163.534" x2="336.193" y2="163.534"/>
			</g>
		</g>
		
			<path style="fill:none;stroke:#A6BBFF;stroke-width:2;stroke-linecap:round;stroke-linejoin:round;stroke-miterlimit:10;stroke-dasharray:0.01,10;" d="
			M271.129,220.621c0,0,30.814-14.802,65.064-13.4"/>
	</g>
	<g>
		<g>
			<g>
				
					<line style="fill:none;stroke:#A6BBFF;stroke-width:2;stroke-linecap:round;stroke-linejoin:round;" x1="516.427" y1="180.009" x2="516.427" y2="180.009"/>
				
					<path style="fill:none;stroke:#A6BBFF;stroke-width:2;stroke-linecap:round;stroke-linejoin:round;stroke-dasharray:0,9.6381;" d="
					M507.637,176.072c-11.949-4.662-35.918-11.879-70.922-12.495"/>
				
					<line style="fill:none;stroke:#A6BBFF;stroke-width:2;stroke-linecap:round;stroke-linejoin:round;" x1="431.887" y1="163.534" x2="431.887" y2="163.534"/>
			</g>
		</g>
		
			<path style="fill:none;stroke:#A6BBFF;stroke-width:2;stroke-linecap:round;stroke-linejoin:round;stroke-miterlimit:10;stroke-dasharray:0.01,10;" d="
			M494.769,219.703c0,0-30.899-13.885-65.149-12.483"/>
	</g>
</g>
<g id="DESIGNED_BY_FREEPIK">
	<g id="XMLID_62_">
		<g id="XMLID_319_">
			<g id="XMLID_338_">
				<path id="XMLID_346_" style="fill:#1D262D;" d="M385.104,473.416c-0.433,0.443-0.804,0.932-1.108,1.453l-0.465-0.241
					c-0.068-0.297-0.35-0.502-0.659-0.466c-0.331,0.039-0.567,0.339-0.529,0.67c0.039,0.331,0.339,0.567,0.67,0.528
					c0.066-0.007,0.127-0.025,0.184-0.052l0.451,0.234c-0.251,0.554-0.433,1.139-0.539,1.743l0.747,0.132
					c0.229-1.306,0.85-2.507,1.792-3.473L385.104,473.416z"/>
				<path id="XMLID_345_" style="fill:#1D262D;" d="M390.591,471.114c-0.171,0-0.341,0.006-0.509,0.017l-0.074-0.626
					c0.188-0.149,0.296-0.389,0.266-0.645c-0.046-0.393-0.402-0.674-0.795-0.628c-0.393,0.046-0.675,0.402-0.628,0.796
					c0.03,0.254,0.189,0.461,0.404,0.564l0.073,0.624c-0.714,0.116-1.402,0.332-2.06,0.646l0.327,0.685
					c0.935-0.447,1.941-0.674,2.995-0.674c0.497,0,0.993,0.053,1.476,0.158l0.16-0.741
					C391.692,471.173,391.142,471.114,390.591,471.114z"/>
				<path id="XMLID_344_" style="fill:#1D262D;" d="M397.194,473.661c0.331-0.04,0.566-0.341,0.525-0.672
					c-0.04-0.331-0.341-0.566-0.672-0.525c-0.31,0.038-0.535,0.304-0.53,0.608l-0.416,0.363c-0.418-0.43-0.89-0.813-1.407-1.14
					l-0.404,0.642c1.135,0.715,2.021,1.727,2.564,2.925l0.69-0.313c-0.251-0.554-0.567-1.071-0.942-1.545l0.402-0.351
					C397.065,473.666,397.128,473.67,397.194,473.661z"/>
				<path id="XMLID_343_" style="fill:#1D262D;" d="M390.044,481.322c-0.386,0.023-0.775,0.035-1.157,0.035
					c-0.88,0-1.733-0.06-2.478-0.18c-0.391-0.061-0.846-0.154-1.271-0.292c1.047,1.861,3.069,3.125,5.389,3.125
					c2.855,0,5.263-1.916,5.949-4.503c-0.682,0.449-1.505,0.825-2.458,1.122C392.838,480.998,391.463,481.237,390.044,481.322z"/>
				<path id="XMLID_339_" style="fill:#1D262D;" d="M390.591,472.631c-3.351,0-6.079,2.666-6.079,5.943
					c0,0.425,0.046,0.849,0.137,1.261c0.674,0.483,2.706,0.891,5.348,0.731c2.88-0.174,5.297-0.958,6.672-2.159
					c-0.005-0.194-0.021-0.39-0.045-0.581C396.244,474.864,393.65,472.631,390.591,472.631z M388.432,479.146
					c-1.02,0-1.85-0.83-1.85-1.85c0-1.021,0.83-1.851,1.85-1.851c1.02,0,1.85,0.83,1.85,1.851
					C390.282,478.315,389.452,479.146,388.432,479.146z M393.169,478.237c-0.75,0-1.36-0.61-1.36-1.36s0.61-1.36,1.36-1.36
					s1.36,0.61,1.36,1.36S393.919,478.237,393.169,478.237z"/>
			</g>
			<path id="XMLID_336_" style="fill:#1D262D;" d="M406.595,474.498c-0.295-0.116-0.806-0.309-1.383-0.238
				c-0.551,0.069-0.844,0.341-0.844,1.007v0.866h2.229v1.717h-2.229v5.455h-1.932v-5.455h-1.339v-1.717h1.339v-0.889
				c0-1.68,0.895-2.782,2.568-2.782c0.643,0,1.157,0.121,1.59,0.308V474.498z"/>
			<path id="XMLID_334_" style="fill:#1D262D;" d="M411.297,477.829c-0.177-0.029-0.357-0.046-0.525-0.046
				c-0.895,0-1.51,0.548-1.51,1.613v3.908h-1.933v-7.172h1.873v0.784c0.451-0.673,1.14-0.977,2.02-0.977
				c0.414,0,0.848,0.128,1.095,0.337L411.297,477.829z"/>
			<path id="XMLID_331_" style="fill:#1D262D;" d="M418.965,479.708c0,0.222-0.016,0.488-0.037,0.651h-5.085
				c0.207,1.036,0.933,1.487,1.843,1.487c0.622,0,1.295-0.252,1.813-0.689l1.133,1.243c-0.815,0.748-1.85,1.089-3.057,1.089
				c-2.198,0-3.724-1.496-3.724-3.753c0-2.258,1.48-3.797,3.627-3.797C417.543,475.94,418.957,477.473,418.965,479.708z
				 M413.851,479.042h3.175c-0.178-0.918-0.732-1.436-1.561-1.436C414.554,477.605,414.021,478.153,413.851,479.042z"/>
			<path id="XMLID_328_" style="fill:#1D262D;" d="M426.619,479.708c0,0.222-0.016,0.488-0.037,0.651h-5.085
				c0.207,1.036,0.933,1.487,1.843,1.487c0.622,0,1.296-0.252,1.814-0.689l1.133,1.243c-0.814,0.748-1.851,1.089-3.058,1.089
				c-2.198,0-3.723-1.496-3.723-3.753c0-2.258,1.48-3.797,3.627-3.797C425.197,475.94,426.611,477.473,426.619,479.708z
				 M421.504,479.042h3.175c-0.178-0.918-0.733-1.436-1.562-1.436C422.207,477.605,421.674,478.153,421.504,479.042z"/>
			<path id="XMLID_325_" style="fill:#1D262D;" d="M434.964,479.715c0,2.154-1.495,3.775-3.472,3.775
				c-0.962,0-1.643-0.378-2.109-0.933v3.708h-1.925v-10.133h1.888v0.792c0.467-0.585,1.154-0.984,2.139-0.984
				C433.469,475.94,434.964,477.561,434.964,479.715z M429.287,479.715c0,1.133,0.748,1.977,1.844,1.977
				c1.14,0,1.85-0.881,1.85-1.977c0-1.095-0.71-1.976-1.85-1.976C430.035,477.739,429.287,478.583,429.287,479.715z"/>
			<path id="XMLID_322_" style="fill:#1D262D;" d="M438.068,473.786c0,0.696-0.541,1.229-1.236,1.229
				c-0.696,0-1.228-0.533-1.228-1.229c0-0.695,0.532-1.243,1.228-1.243C437.527,472.543,438.068,473.091,438.068,473.786z
				 M437.808,483.305h-1.932v-7.172h1.932V483.305z"/>
			<path id="XMLID_320_" style="fill:#1D262D;" d="M441.032,478.686l2.702-2.554h2.368l-3.478,3.375l3.501,3.797h-2.376
				l-2.717-2.901v2.901H439.1v-10.658h1.932V478.686z"/>
		</g>
		<g id="XMLID_63_">
			<path id="XMLID_88_" style="fill:#1D262D;" d="M309.412,483.24v-1.055c-0.527,0.718-1.391,1.23-2.387,1.23
				c-1.846,0-3.149-1.406-3.149-3.706c0-2.256,1.289-3.721,3.149-3.721c0.952,0,1.816,0.469,2.387,1.245v-3.765h1.1v9.771H309.412z
				 M309.412,481.321v-3.208c-0.395-0.615-1.244-1.143-2.123-1.143c-1.421,0-2.271,1.172-2.271,2.739
				c0,1.567,0.85,2.725,2.271,2.725C308.167,482.435,309.017,481.936,309.412,481.321z"/>
			<path id="XMLID_85_" style="fill:#1D262D;" d="M311.931,479.695c0-2.051,1.465-3.706,3.486-3.706c2.139,0,3.399,1.67,3.399,3.794
				v0.278h-5.727c0.088,1.333,1.025,2.446,2.549,2.446c0.805,0,1.625-0.322,2.182-0.894l0.527,0.718
				c-0.703,0.703-1.654,1.084-2.813,1.084C313.441,483.416,311.931,481.907,311.931,479.695z M315.404,476.897
				c-1.51,0-2.256,1.274-2.314,2.358h4.643C317.718,478.201,317.015,476.897,315.404,476.897z"/>
			<path id="XMLID_83_" style="fill:#1D262D;" d="M319.607,482.303l0.571-0.791c0.469,0.542,1.362,1.011,2.329,1.011
				c1.084,0,1.67-0.513,1.67-1.216c0-1.714-4.38-0.659-4.38-3.281c0-1.099,0.952-2.036,2.636-2.036c1.202,0,2.052,0.454,2.623,1.025
				l-0.514,0.762c-0.424-0.513-1.2-0.894-2.109-0.894c-0.966,0-1.566,0.483-1.566,1.113c0,1.553,4.379,0.527,4.379,3.281
				c0,1.187-0.951,2.139-2.782,2.139C321.306,483.416,320.325,483.065,319.607,482.303z"/>
			<path id="XMLID_80_" style="fill:#1D262D;" d="M326.477,474.422c0-0.41,0.337-0.747,0.731-0.747c0.41,0,0.748,0.337,0.748,0.747
				c0,0.41-0.338,0.732-0.748,0.732C326.814,475.154,326.477,474.832,326.477,474.422z M326.667,483.24v-7.075h1.099v7.075H326.667z
				"/>
			<path id="XMLID_77_" style="fill:#1D262D;" d="M329.582,485.057l0.557-0.82c0.586,0.703,1.289,0.967,2.3,0.967
				c1.172,0,2.271-0.571,2.271-2.124v-1.011c-0.513,0.718-1.377,1.26-2.373,1.26c-1.846,0-3.149-1.377-3.149-3.662
				c0-2.27,1.289-3.677,3.149-3.677c0.952,0,1.802,0.469,2.373,1.245v-1.069h1.099v6.87c0,2.344-1.641,3.076-3.369,3.076
				C331.237,486.111,330.417,485.876,329.582,485.057z M334.708,481.204v-3.091c-0.381-0.615-1.23-1.143-2.109-1.143
				c-1.421,0-2.27,1.128-2.27,2.695c0,1.553,0.849,2.695,2.27,2.695C333.478,482.361,334.328,481.819,334.708,481.204z"/>
			<path id="XMLID_75_" style="fill:#1D262D;" d="M342.414,483.24v-4.629c0-1.245-0.631-1.641-1.582-1.641
				c-0.865,0-1.686,0.527-2.095,1.099v5.171h-1.099v-7.075h1.099v1.025c0.497-0.586,1.464-1.201,2.518-1.201
				c1.48,0,2.256,0.747,2.256,2.285v4.966H342.414z"/>
			<path id="XMLID_72_" style="fill:#1D262D;" d="M344.932,479.695c0-2.051,1.465-3.706,3.486-3.706c2.139,0,3.398,1.67,3.398,3.794
				v0.278h-5.728c0.088,1.333,1.025,2.446,2.549,2.446c0.806,0,1.626-0.322,2.183-0.894l0.527,0.718
				c-0.703,0.703-1.655,1.084-2.813,1.084C346.441,483.416,344.932,481.907,344.932,479.695z M348.404,476.897
				c-1.509,0-2.256,1.274-2.314,2.358h4.643C350.718,478.201,350.015,476.897,348.404,476.897z"/>
			<path id="XMLID_69_" style="fill:#1D262D;" d="M358.35,483.24v-1.055c-0.527,0.718-1.392,1.23-2.388,1.23
				c-1.846,0-3.149-1.406-3.149-3.706c0-2.256,1.288-3.721,3.149-3.721c0.951,0,1.816,0.469,2.388,1.245v-3.765h1.099v9.771H358.35z
				 M358.35,481.321v-3.208c-0.396-0.615-1.245-1.143-2.124-1.143c-1.421,0-2.271,1.172-2.271,2.739c0,1.567,0.85,2.725,2.271,2.725
				C357.105,482.435,357.955,481.936,358.35,481.321z"/>
			<path id="XMLID_66_" style="fill:#1D262D;" d="M364.692,483.24v-9.771h1.099v3.765c0.571-0.776,1.421-1.245,2.388-1.245
				c1.845,0,3.149,1.465,3.149,3.721c0,2.3-1.305,3.706-3.149,3.706c-0.996,0-1.86-0.513-2.388-1.23v1.055H364.692z M367.9,482.435
				c1.436,0,2.285-1.157,2.285-2.725c0-1.567-0.85-2.739-2.285-2.739c-0.864,0-1.729,0.527-2.109,1.143v3.208
				C366.171,481.936,367.036,482.435,367.9,482.435z"/>
			<path id="XMLID_64_" style="fill:#1D262D;" d="M372.529,485.013c0.16,0.073,0.425,0.117,0.6,0.117
				c0.484,0,0.807-0.161,1.055-0.747l0.469-1.069l-2.959-7.148h1.188l2.357,5.801l2.345-5.801h1.2l-3.545,8.511
				c-0.424,1.024-1.142,1.421-2.08,1.435c-0.234,0-0.6-0.044-0.805-0.103L372.529,485.013z"/>
		</g>
	</g>
</g>
</svg>
